<svg width="70" height="77" viewBox="0 0 70 77" fill="none" xmlns="http://www.w3.org/2000/svg">
<path d="M69.0751 44.9519C68.657 44.3327 68.4938 43.6887 68.555 42.9271C68.7454 40.6852 67.5625 38.5393 65.6115 37.5891C64.9521 37.2689 64.5034 36.7956 64.1941 36.1088C63.2865 34.0661 61.237 32.8241 59.099 33.0235C58.3716 33.0875 57.7563 32.9167 57.1649 32.479C55.7815 31.4683 54.0276 31.262 52.4879 31.8384V7.78616C52.4879 7.39471 52.2839 7.03885 51.9576 6.85028C44.1127 2.36997 35.2212 0 26.2439 0C17.264 0 8.372 2.37006 0.530249 6.85028C0.203945 7.03533 0 7.39475 0 7.78616V37.7563C0 54.4996 19.8872 61.3859 25.9817 63.0968C26.0667 63.1217 26.155 63.1324 26.2468 63.1324C26.3352 63.1324 26.4236 63.1217 26.5119 63.0968C29.6152 62.2249 35.4614 60.2677 40.8389 56.7233C41.3181 57.4243 41.9503 58.008 42.7117 58.4066L38.9694 73.0108C38.864 73.4201 39 73.8542 39.3161 74.1175C39.6322 74.3809 40.0673 74.4271 40.4241 74.2278L45.4886 71.4486L48.5477 76.5054C48.7347 76.8185 49.061 77 49.4077 77C49.4586 77 49.5096 76.9964 49.5606 76.9893C49.9617 76.9253 50.2846 76.6192 50.39 76.2135L53.3947 64.4771C53.67 64.5234 53.9453 64.5518 54.2206 64.5518C54.3566 64.5518 54.4891 64.5305 54.6251 64.5198L57.6196 76.2134C57.725 76.6227 58.0479 76.9252 58.449 76.9892C58.5 76.9963 58.551 76.9999 58.6019 76.9999C58.9486 76.9999 59.2715 76.8148 59.4619 76.5052L62.521 71.4484L67.5821 74.2277C67.939 74.4234 68.3741 74.3808 68.6901 74.1174C69.0062 73.8541 69.1422 73.4199 69.0368 73.0107L65.3591 58.6269C65.444 58.5771 65.5222 58.5202 65.6106 58.4775C67.5616 57.5237 68.7445 55.3815 68.5575 53.1431C68.4963 52.3815 68.6595 51.7374 69.0776 51.1146C70.308 49.2713 70.308 46.798 69.0742 44.9512L69.0751 44.9519ZM26.2404 60.9655C20.2105 59.2361 2.02946 52.7594 2.02946 37.7596L2.03286 8.42256C17.2369 -0.0290796 35.2481 -0.0290796 50.4521 8.42256V32.9058C50.1054 33.0161 49.7417 33.0623 49.3441 33.0267C48.6983 32.9663 48.0626 33.0517 47.461 33.2367V11.0201C47.461 10.6073 47.2333 10.2301 46.873 10.0557C40.4828 6.92413 33.3483 5.26583 26.2409 5.26583C19.1336 5.26583 11.9993 6.92058 5.60891 10.0557C5.25201 10.2301 5.02089 10.6073 5.02089 11.0201V37.7598C5.02089 42.7028 7.50898 47.1331 12.4171 50.9302C17.1111 54.56 22.9102 56.6809 25.9522 57.624C26.0474 57.6524 26.1426 57.6667 26.2412 57.6667C26.3397 57.6667 26.4349 57.6524 26.5301 57.624C29.4838 56.7094 34.929 54.7202 39.5005 51.3573C39.8098 51.9089 39.9389 52.4818 39.8846 53.1437C39.837 53.6952 39.8744 54.2397 39.9865 54.7628C34.9186 58.1577 29.3412 60.0793 26.2443 60.969L26.2404 60.9655ZM39.8808 42.9304C39.9454 43.6849 39.7822 44.3254 39.3642 44.9481C38.4838 46.2612 38.2424 47.8947 38.6164 49.3893C34.371 52.6026 29.1944 54.5528 26.2403 55.4851C23.6774 54.6738 19.3675 53.0724 15.4757 50.5245L23.1642 42.4749C24.1873 41.4038 25.445 40.8878 26.8964 40.9412C30.2444 41.0657 33.5211 39.7134 35.8867 37.2402C38.8846 34.098 40.1015 29.4718 39.0614 25.1621C38.973 24.7921 38.6977 24.4967 38.3442 24.3971C37.9907 24.2939 37.6134 24.4006 37.3551 24.6711L31.2266 31.0801L26.0398 29.6246L24.6496 24.1942L30.7712 17.7781C31.0295 17.5076 31.1281 17.1126 31.0329 16.7425C30.9344 16.3724 30.6556 16.0877 30.3021 15.9916C26.1859 14.9063 21.7672 16.1767 18.7657 19.3189C16.4035 21.7957 15.1152 25.2262 15.2308 28.7314C15.2818 30.2509 14.7889 31.5641 13.7658 32.6388L7.18872 39.5247C7.10035 38.9446 7.05276 38.3538 7.05276 37.7596V11.7031C19.2827 5.92033 33.1911 5.92033 45.421 11.7031V34.4463C44.9383 34.9125 44.5271 35.4641 44.2381 36.1117C43.9288 36.8021 43.4801 37.2753 42.8241 37.5956C40.8731 38.5458 39.6902 40.6916 39.8806 42.9371L39.8808 42.9304ZM22.5353 24.1519L24.228 30.7709C24.3232 31.1374 24.5951 31.4257 24.9486 31.5253L31.2673 33.2975C31.6174 33.3972 31.9947 33.2904 32.2496 33.0235L37.3753 27.6607C37.5351 30.6321 36.4848 33.5964 34.4454 35.7316C32.4467 37.8206 29.7887 38.9166 26.9641 38.8134C24.9553 38.7386 23.1403 39.4859 21.7229 40.9699L13.7556 49.3112C13.7115 49.2792 13.6673 49.2472 13.6265 49.2151C10.7339 46.9768 8.79308 44.5249 7.81078 41.8951L15.2104 34.148C16.6312 32.6605 17.3416 30.7638 17.2702 28.6606C17.1716 25.7034 18.2185 22.9206 20.2104 20.8281C22.2532 18.6929 25.0846 17.5969 27.9227 17.7606L22.8004 23.1269C22.5421 23.3974 22.4435 23.7888 22.5387 24.1554L22.5353 24.1519ZM49.0208 73.3178L46.7027 69.4817C46.4205 69.012 45.8393 68.8518 45.3703 69.108L41.5328 71.2147L44.3607 60.1798C45.3159 62.0872 47.2805 63.2366 49.3437 63.0444C50.0643 62.9768 50.6796 63.1476 51.2744 63.5853C51.339 63.6351 51.4138 63.6672 51.4817 63.7134L49.0243 73.3218L49.0208 73.3178ZM62.6308 69.1116C62.1617 68.8553 61.5805 69.0155 61.2984 69.4852L58.9802 73.3178L56.5806 63.9445C56.7811 63.8377 56.9748 63.7239 57.1618 63.5851C57.7566 63.1474 58.3684 62.9766 59.0925 63.0442C60.9551 63.215 62.7464 62.3004 63.7797 60.7133L66.4649 71.2144L62.6308 69.1077L62.6308 69.1116ZM67.4064 49.8912C66.7198 50.9161 66.4207 52.0691 66.5261 53.3288C66.6416 54.6811 65.9278 55.9728 64.7483 56.5494C64.3303 56.7558 63.9666 57.0191 63.63 57.318C63.5791 57.3536 63.5383 57.3928 63.4941 57.4355C63.0216 57.8874 62.6307 58.4247 62.3486 59.0618C61.8014 60.2931 60.5641 61.044 59.276 60.923C58.0829 60.8127 56.9783 61.1187 55.9959 61.8411C54.932 62.6204 53.5045 62.6204 52.4406 61.8411C51.5875 61.2183 50.6425 60.9017 49.633 60.9017C49.4766 60.9017 49.3203 60.9088 49.1605 60.923C47.8689 61.044 46.6351 60.2967 46.0879 59.0654C45.7276 58.254 45.2076 57.5992 44.5482 57.0939C44.5278 57.0761 44.5108 57.0583 44.487 57.0405C44.2388 56.8555 43.9737 56.6918 43.6848 56.553C42.5087 55.98 41.7915 54.6847 41.9071 53.336C42.0125 52.087 41.7202 50.934 41.0302 49.8985C40.2858 48.7881 40.2858 47.2935 41.0302 46.1797C41.7202 45.1513 42.0159 43.9948 41.9071 42.7493C41.7915 41.397 42.5053 40.1053 43.6814 39.5323C44.7657 39.0057 45.5747 38.1587 46.0811 37.02C46.6283 35.7887 47.8656 35.0414 49.1572 35.1588C50.3571 35.2656 51.4583 34.956 52.4373 34.2371C53.4978 33.4614 54.9287 33.4614 55.9858 34.2336C56.9613 34.956 58.0626 35.2656 59.2658 35.1588C60.5575 35.0378 61.7912 35.7851 62.342 37.02C62.8484 38.1552 63.6573 39.0021 64.7416 39.5323C65.9177 40.1053 66.6315 41.4006 66.5193 42.7529C66.4174 44.0091 66.7131 45.1621 67.3997 46.1869C68.1441 47.2973 68.1441 48.7919 67.3997 49.9021L67.4064 49.8912ZM54.2185 37.9234C48.8922 37.9234 44.5616 42.4571 44.5616 48.03C44.5616 53.6028 48.8953 58.1404 54.2185 58.1404C59.5447 58.1404 63.8718 53.6031 63.8718 48.03C63.8718 42.4537 59.5415 37.9234 54.2185 37.9234ZM54.2185 56.0113C50.0173 56.0113 46.5945 52.4314 46.5945 48.0294C46.5945 43.6274 50.0139 40.0546 54.2185 40.0546C58.4196 40.0546 61.8356 43.631 61.8356 48.0294C61.8356 52.4278 58.4196 56.0113 54.2185 56.0113ZM58.7901 44.3961C59.1878 44.8124 59.1878 45.485 58.7901 45.9013L53.2804 51.6698C53.0866 51.8726 52.8283 51.9829 52.5598 51.9829C52.5156 51.9829 52.4714 51.9794 52.4272 51.9723C52.1145 51.9296 51.8358 51.7338 51.6794 51.4491L49.4837 47.4671C49.2016 46.9582 49.3681 46.307 49.8576 46.0115C50.3436 45.7162 50.9656 45.8906 51.2478 46.403L52.7808 49.1823L57.3524 44.396C57.7501 43.9796 58.3925 43.9797 58.7901 44.3961Z" fill="url(#paint0_linear_15190_3865)"/>
<defs>
<linearGradient id="paint0_linear_15190_3865" x1="22.7799" y1="77" x2="22.7798" y2="-2.61531e-06" gradientUnits="userSpaceOnUse">
<stop stop-color="#0076C9"/>
<stop offset="1" stop-color="#0BCDD0"/>
</linearGradient>
</defs>
</svg>
