<svg width="75" height="63" viewBox="0 0 75 63" fill="none" xmlns="http://www.w3.org/2000/svg">
<path fill-rule="evenodd" clip-rule="evenodd" d="M75 3.14997V46.6309C75 47.5 74.6375 48.2867 74.053 48.857C73.4686 49.4272 72.6623 49.7809 71.7716 49.7809L43.7132 49.7779L45.2946 53.7086H51.2669C52.5764 53.7086 53.7672 54.23 54.6297 55.0716C55.4923 55.9132 56.0267 57.0751 56.0267 58.3527V62.2499C56.0267 62.6615 55.6829 62.997 55.261 62.997L20.1108 63C19.6889 63 19.3452 62.6646 19.3452 62.2529V58.3558C19.3452 57.0781 19.8796 55.9163 20.7422 55.0747C21.6047 54.2331 22.7955 53.7116 24.1049 53.7116H30.0429L31.3524 49.7809L3.22843 49.7779C2.33772 49.7779 1.53141 49.4241 0.94696 48.8539C0.362511 48.2837 0 47.4969 0 46.6278V3.15004C0 2.28095 0.362527 1.49422 0.94696 0.923966C1.53139 0.353708 2.33772 0 3.22843 0H71.775C72.6658 0 73.4721 0.353724 74.0565 0.923966C74.6378 1.4942 75 2.28088 75 3.14997ZM60.63 27.3959C59.9299 27.3959 59.2955 27.6734 58.8361 28.1216C58.3954 28.5516 58.1141 29.1401 58.0923 29.7896H47.9634C47.5415 29.7896 47.1977 30.1251 47.1977 30.5367C47.1977 30.9484 47.5415 31.2838 47.9634 31.2838H58.0955C58.1173 31.9334 58.3986 32.5219 58.8393 32.9518C59.2987 33.4001 59.9331 33.6776 60.6332 33.6776C61.3332 33.6776 61.9677 33.4001 62.4271 32.9518C62.8678 32.5219 63.149 31.9333 63.1709 31.2838H64.6086C65.0305 31.2838 65.3742 30.9484 65.3742 30.5367C65.3742 30.1251 65.0305 29.7896 64.6086 29.7896H63.1709C63.149 29.1401 62.8678 28.5516 62.4271 28.1216C61.9646 27.6734 61.33 27.3959 60.63 27.3959ZM61.3425 29.1767C61.1613 28.9998 60.9081 28.887 60.6331 28.887C60.355 28.887 60.1049 28.9968 59.9237 29.1767C59.7393 29.3566 59.6268 29.6006 59.6268 29.8719V31.2015C59.6268 31.4729 59.7393 31.7168 59.9237 31.8967C60.1049 32.0736 60.3581 32.1864 60.6331 32.1864C60.9113 32.1864 61.1613 32.0766 61.3425 31.8967C61.5269 31.7168 61.6394 31.4728 61.6394 31.2015V29.8719C61.6394 29.6005 61.5238 29.3566 61.3425 29.1767ZM52.8106 21.6905C52.1106 21.6905 51.4761 21.968 51.0167 22.4163C50.576 22.8462 50.2948 23.4348 50.2729 24.0842H47.9633C47.5414 24.0842 47.1976 24.4197 47.1976 24.8313C47.1976 25.243 47.5414 25.5784 47.9633 25.5784H50.2729C50.2948 26.228 50.576 26.8165 51.0167 27.2464C51.4761 27.6947 52.1106 27.9722 52.8106 27.9722C53.5107 27.9722 54.1451 27.6947 54.6045 27.2464C55.0452 26.8165 55.3265 26.2279 55.3483 25.5784H64.6051C65.027 25.5784 65.3708 25.243 65.3708 24.8313C65.3708 24.4197 65.027 24.0842 64.6051 24.0842L55.3483 24.0873C55.3265 23.4378 55.0452 22.8493 54.6045 22.4193C54.1451 21.968 53.5107 21.6905 52.8106 21.6905ZM53.5232 23.4713C53.3388 23.2944 53.0888 23.1816 52.8106 23.1816C52.5356 23.1816 52.2824 23.2914 52.1012 23.4713C51.9199 23.6512 51.8043 23.8952 51.8043 24.1635V25.4961C51.8043 25.7675 51.9168 26.0114 52.1012 26.1883C52.2856 26.3682 52.5356 26.478 52.8106 26.478C53.0888 26.478 53.3388 26.3682 53.5232 26.1883C53.7044 26.0114 53.8201 25.7644 53.8201 25.4961V24.1666C53.8201 23.8982 53.7044 23.6512 53.5232 23.4713ZM60.405 16.101C59.705 16.101 59.0705 16.3784 58.6111 16.8267C58.1955 17.2323 57.9236 17.775 57.8736 18.3789L47.9631 18.3819C47.5412 18.3819 47.1974 18.7173 47.1974 19.129C47.1974 19.5407 47.5412 19.8761 47.9631 19.8761H57.8672V19.9096C57.8672 20.5927 58.1516 21.2118 58.611 21.66C59.0704 22.1082 59.7048 22.3858 60.4049 22.3858C61.1049 22.3858 61.7394 22.1083 62.1988 21.66C62.6582 21.2117 62.9426 20.5927 62.9426 19.9096V19.8761H64.6052C65.0271 19.8761 65.3709 19.5407 65.3709 19.129C65.3709 18.7173 65.0271 18.3819 64.6052 18.3819H62.9333C62.8832 17.7781 62.6113 17.2323 62.1957 16.8298C61.7363 16.3785 61.102 16.101 60.405 16.101ZM61.1145 17.8818C60.9332 17.7049 60.6801 17.5921 60.405 17.5921C60.1269 17.5921 59.8769 17.7018 59.6956 17.8818C59.5112 18.0617 59.3987 18.3056 59.3987 18.574V19.9065C59.3987 20.1779 59.5112 20.4219 59.6956 20.5987C59.8769 20.7786 60.13 20.8884 60.405 20.8884C60.6832 20.8884 60.9332 20.7786 61.1145 20.5987C61.2989 20.4219 61.4114 20.1749 61.4114 19.9065V18.574C61.4114 18.3087 61.2989 18.0617 61.1145 17.8818ZM21.8015 25.1697L24.8424 27.8684C25.1456 28.1368 25.6113 28.1246 25.8956 27.844L30.8742 22.9863C31.1743 22.6966 31.1743 22.2209 30.8742 21.9312C30.5742 21.6385 30.0898 21.6385 29.7929 21.9312L25.33 26.2857L22.8267 24.0657C22.5141 23.7882 22.0328 23.8096 21.7484 24.1145C21.4671 24.4225 21.489 24.8953 21.8015 25.1697ZM26.1706 31.6313C28.077 31.6313 29.8053 30.8781 31.0554 29.6584C32.3056 28.4387 33.0775 26.7523 33.0775 24.8922C33.0775 23.0321 32.3055 21.3458 31.0554 20.126C29.8054 18.9063 28.077 18.1531 26.1706 18.1531C24.2642 18.1531 22.5359 18.9063 21.2858 20.126C20.0357 21.3457 19.2638 23.0321 19.2638 24.8922C19.2638 26.7554 20.0357 28.4387 21.2858 29.6584C22.5359 30.8751 24.2642 31.6313 26.1706 31.6313ZM32.1399 30.7135C33.6681 29.2223 34.6119 27.164 34.6119 24.8892C34.6119 22.6144 33.6681 20.556 32.1399 19.0679C30.6116 17.5768 28.502 16.6559 26.1706 16.6559C23.8392 16.6559 21.7296 17.5768 20.2045 19.0679C18.6762 20.5591 17.7325 22.6174 17.7325 24.8892C17.7325 27.164 18.6763 29.2224 20.2045 30.7135C21.7328 32.2046 23.8424 33.1255 26.1706 33.1255C28.5021 33.1255 30.6116 32.2015 32.1399 30.7135ZM28.874 35.2174C29.3115 35.1076 29.7334 34.9765 30.1366 34.824C30.5647 34.6624 30.9773 34.4733 31.3742 34.266C31.6773 34.1043 32.0461 34.1653 32.2774 34.394L32.2805 34.391L35.7214 37.7484L39.0092 34.5404L35.659 31.2715C35.3902 31.0092 35.3621 30.6037 35.5746 30.3109C35.7933 29.9511 35.9934 29.5729 36.1715 29.1735C36.3559 28.7649 36.5122 28.3502 36.6403 27.9263C36.7372 27.603 37.0435 27.3926 37.3716 27.3926H42.2407V22.8582H37.5059C37.134 22.8582 36.8215 22.599 36.7527 22.2544C36.6434 21.8275 36.5058 21.4159 36.3496 21.0225C36.1839 20.6047 35.9902 20.2022 35.7777 19.8149C35.612 19.5191 35.6745 19.1593 35.9089 18.9336L35.9058 18.9306L39.3467 15.5732L36.0589 12.3653L32.7118 15.6311C32.443 15.8934 32.0273 15.9208 31.7273 15.7135C31.3585 15.5 30.9678 15.3049 30.5616 15.131C30.1428 14.9511 29.7177 14.7987 29.2833 14.6736C28.952 14.5791 28.7364 14.2803 28.7364 13.9601H28.7333V9.21223L24.0891 9.20918V13.829C24.0891 14.1919 23.8235 14.4968 23.4703 14.5639C23.0328 14.6706 22.6109 14.8048 22.2077 14.9573C21.7921 15.1128 21.3795 15.3019 20.9701 15.5214C20.6607 15.6861 20.2888 15.619 20.0544 15.3842L16.6197 12.0329L13.3319 15.2409L16.6791 18.5068C16.9479 18.769 16.9729 19.1746 16.7635 19.4673C16.5447 19.8272 16.3447 20.2053 16.1666 20.6047C15.9822 21.0134 15.8259 21.4281 15.6978 21.852C15.6009 22.1752 15.2946 22.3856 14.9665 22.3856V22.3887H10.1004V26.9231H14.8352C15.2071 26.9231 15.5197 27.1823 15.5853 27.5269C15.6978 27.9538 15.8322 28.3654 15.9885 28.7588C16.1541 29.1766 16.3479 29.5791 16.5604 29.9664C16.726 30.2622 16.6635 30.622 16.4291 30.8476L16.4323 30.8507L12.9913 34.2081L16.276 37.416L19.6232 34.1501C19.8919 33.8879 20.3076 33.8605 20.6076 34.0678C20.9764 34.2813 21.364 34.4764 21.7733 34.6502C22.1921 34.8301 22.6172 34.9826 23.0516 35.1076C23.3829 35.2022 23.5985 35.501 23.5985 35.8212H23.6017V40.5691H28.2489V35.9492C28.2552 35.5863 28.5208 35.2845 28.874 35.2174ZM30.6866 36.2114C30.9929 36.0956 31.2929 35.9675 31.5898 35.8272L35.1808 39.331C35.4776 39.6237 35.9652 39.6237 36.2621 39.331L40.6312 35.068C40.9312 34.7752 40.9312 34.3026 40.6312 34.0128L37.1528 30.6189C37.3059 30.3444 37.4465 30.0639 37.5747 29.7803C37.7059 29.4906 37.8247 29.1948 37.9341 28.8899H43.0127C43.4346 28.8899 43.7784 28.5545 43.7784 28.1428V22.1141C43.7784 21.7025 43.4346 21.367 43.0127 21.367H38.0935C37.9998 21.0713 37.8966 20.7785 37.781 20.4858C37.6622 20.1869 37.531 19.8942 37.3872 19.6045L40.9782 16.1008C41.2782 15.808 41.2782 15.3354 40.9782 15.0456L36.6091 10.7826C36.309 10.493 35.8246 10.493 35.5277 10.7826L32.0492 14.1766C31.7648 14.0272 31.4804 13.89 31.1898 13.765C30.8929 13.6369 30.5898 13.521 30.2773 13.4143L30.271 8.46207C30.271 8.0504 29.9272 7.71497 29.5053 7.71497H23.3266C22.9047 7.71497 22.5609 8.0504 22.5609 8.46207V13.2618C22.2578 13.3532 21.9578 13.4539 21.6609 13.5667C21.3483 13.6856 21.0483 13.8137 20.7577 13.9509L17.1636 10.4472C16.8636 10.1544 16.3792 10.1544 16.0822 10.4472L11.7131 14.7102C11.4131 15.0029 11.4131 15.4756 11.7131 15.7653L15.1916 19.1593C15.0385 19.4337 14.8978 19.7143 14.7697 19.9978C14.6384 20.2875 14.5197 20.5833 14.4103 20.8882H9.33481C8.9129 20.8882 8.56912 21.2237 8.56912 21.6353V27.664C8.56912 28.0757 8.9129 28.4111 9.33481 28.4111H14.2539C14.3477 28.7069 14.4508 28.9996 14.5665 29.2923C14.6852 29.5912 14.8165 29.8839 14.9603 30.1736L11.3693 33.6774C11.0693 33.9701 11.0693 34.4428 11.3693 34.7325L15.7384 38.9955C16.0384 39.2852 16.5229 39.2852 16.8198 38.9955L20.2982 35.6015C20.5826 35.7509 20.867 35.8881 21.1577 36.0132C21.4546 36.1412 21.7577 36.2571 22.0702 36.3638V41.3191C22.0702 41.7308 22.414 42.0662 22.8359 42.0662H29.0146C29.4365 42.0662 29.7803 41.7308 29.7803 41.3191V36.5194C30.0866 36.4249 30.3897 36.3243 30.6866 36.2114ZM42.0692 49.7813H32.9652L31.6557 53.712H43.6536L42.0692 49.7813ZM20.877 61.5089H54.4958V58.3558C54.4958 57.4897 54.1302 56.703 53.5457 56.1297C52.9613 55.5595 52.1519 55.2027 51.2643 55.2027H24.1092C23.2216 55.2027 22.4153 55.5595 21.8277 56.1297C21.2433 56.7 20.8776 57.4897 20.8776 58.3558L20.877 61.5089ZM70.3284 5.30586C70.3284 4.8942 69.9846 4.55877 69.5627 4.55877H5.43885C5.01694 4.55877 4.67316 4.8942 4.67316 5.30586V44.4722C4.67316 44.8838 5.01694 45.2193 5.43885 45.2193H69.5627C69.9846 45.2193 70.3284 44.8838 70.3284 44.4722V5.30586ZM68.797 43.7251V6.05294H6.20446V43.7251H68.797ZM73.4724 46.6312V3.15028C73.4724 2.69593 73.2818 2.28119 72.9755 1.97932C72.6692 1.68048 72.2442 1.49447 71.7754 1.49447L3.22878 1.49142C2.75999 1.49142 2.33806 1.67743 2.02868 1.97627C1.7224 2.27511 1.53176 2.68982 1.53176 3.14723V46.6281C1.53176 47.0825 1.7224 47.4972 2.02868 47.7991C2.33495 48.0979 2.75999 48.284 3.22878 48.284H71.7786C72.2442 48.284 72.6693 48.0979 72.9787 47.7991C73.2818 47.5003 73.4724 47.0856 73.4724 46.6312Z" fill="url(#paint0_linear_15190_3862)"/>
<defs>
<linearGradient id="paint0_linear_15190_3862" x1="24.407" y1="63" x2="24.407" y2="-2.1398e-06" gradientUnits="userSpaceOnUse">
<stop stop-color="#0076C9"/>
<stop offset="1" stop-color="#0BCDD0"/>
</linearGradient>
</defs>
</svg>
