<svg width="63" height="60" viewBox="0 0 63 60" fill="none" xmlns="http://www.w3.org/2000/svg"><path d="M39.7327 32.9858C39.5355 32.9858 39.2397 32.8879 39.0425 32.6922L29.7745 23.981C29.5773 23.7853 29.4787 23.5895 29.4787 23.2958C29.4787 23.0022 29.5773 22.8064 29.7745 22.6107L51.2673 0.587874C51.6617 0.196355 52.2533 0.196355 52.549 0.587874L62.7042 9.78888C62.9014 9.98464 63 10.1804 63 10.4741C63 10.7677 62.9014 10.9635 62.7042 11.1593L53.4362 20.5557C53.0418 20.9472 52.4503 20.9472 52.0559 20.5557C51.6615 20.1642 51.6615 19.5769 52.0559 19.1854L60.6336 10.572L51.9575 2.64388L31.7461 23.2967L39.732 30.7355L47.4225 23.982C47.8169 23.5905 48.4084 23.6883 48.8028 24.0799C49.1972 24.4714 49.0986 25.0587 48.7042 25.4502L40.4224 32.693C40.2253 32.8887 39.9299 32.9858 39.7327 32.9858Z" fill="url(#paint0_linear_15229_3932)"/><path d="M50.4791 26.6232C48.1129 26.6232 46.141 24.6656 46.141 22.3165C46.141 19.9673 48.1129 18.0097 50.4791 18.0097C52.8453 18.0097 54.8172 19.9673 54.8172 22.3165C54.8172 24.6656 52.8453 26.6232 50.4791 26.6232ZM50.4791 19.7713C49.0988 19.7713 48.0143 20.848 48.0143 22.2182C48.0143 23.5885 49.0989 24.6652 50.4791 24.6652C51.8593 24.6652 52.9439 23.5885 52.9439 22.2182C52.9439 20.848 51.7608 19.7713 50.4791 19.7713Z" fill="url(#paint1_linear_15229_3932)"/><path d="M53.1413 56.3786C52.9441 56.3786 52.7469 56.2807 52.5497 56.1828C52.1553 55.8892 51.9582 55.302 52.3525 54.9104L55.6061 50.3101C57.5779 47.4716 59.0568 44.5351 59.7469 41.5989C61.3244 35.6283 60.5357 29.9511 57.5779 25.2528L53.5356 18.8908C53.2399 18.4014 53.3385 17.8141 53.8314 17.6184C54.3244 17.3248 54.916 17.4227 55.1131 17.9121L59.1554 24.1764C62.4089 29.2661 63.2962 35.4327 61.6201 41.9908C60.8314 45.1229 59.3525 48.2551 57.1835 51.2895L53.93 55.8899C53.7328 56.1835 53.437 56.3786 53.1413 56.3786Z" fill="url(#paint2_linear_15229_3932)"/><path d="M21.5916 56.3786C21.0987 56.3786 20.6057 55.9871 20.6057 55.3998V50.9952C20.6057 48.0589 23.0705 45.6118 26.0283 45.6118H40.7185C46.0425 45.6118 50.4793 41.3051 50.4793 35.9216V25.4483C50.4793 24.9589 50.8737 24.4695 51.4652 24.4695C51.9582 24.4695 52.4512 24.861 52.4512 25.4483V36.0193C52.4512 42.3813 47.2258 47.5694 40.8169 47.5694H26.1268C24.1549 47.5694 22.5774 49.1355 22.5774 51.0931V55.4977C22.5774 55.8892 22.1832 56.3786 21.5916 56.3786Z" fill="url(#paint3_linear_15229_3932)"/><path d="M21.5916 56.3786H0.985926C0.492963 56.3786 0 55.9871 0 55.3998V3.32779C0 2.83839 0.39437 2.34899 0.985926 2.34899H39.7327C40.2256 2.34899 40.7186 2.74051 40.7186 3.32779V13.8011C40.7186 14.2905 40.3242 14.7799 39.7327 14.7799C39.2397 14.7799 38.7467 14.3884 38.7467 13.8011V4.3069H1.87279V54.519H21.5913C22.0843 54.519 22.5774 54.9104 22.5774 55.4977C22.5774 56.0849 22.1832 56.3786 21.5916 56.3786Z" fill="url(#paint4_linear_15229_3932)"/><path d="M39.7327 47.5697C39.2397 47.5697 38.7467 47.1782 38.7467 46.5909V32.007C38.7467 31.5176 39.1411 31.0282 39.7327 31.0282C40.2256 31.0282 40.7186 31.4197 40.7186 32.007V46.5909C40.7186 47.0803 40.2256 47.5697 39.7327 47.5697Z" fill="url(#paint5_linear_15229_3932)"/><path d="M9.85895 19.7719C9.56317 19.7719 9.36598 19.674 9.16877 19.4783L6.11236 16.444C5.71799 16.0524 5.71799 15.4652 6.11236 15.0736C6.50674 14.6821 7.09829 14.6821 7.49266 15.0736L9.76032 17.3249L14.3942 11.4521C14.69 11.0606 15.2815 10.9627 15.7745 11.2564C16.1689 11.55 16.2675 12.1372 15.9717 12.6267L10.6477 19.2825C10.3519 19.674 10.1547 19.7719 9.85895 19.7719Z" fill="url(#paint6_linear_15229_3932)"/><path d="M9.85895 33.6705C9.56317 33.6705 9.36598 33.5726 9.16877 33.3769L6.11236 30.3426C5.71799 29.951 5.71799 29.3638 6.11236 28.9722C6.50674 28.5807 7.09829 28.5807 7.49266 28.9722L9.76032 31.2235L14.3942 25.3507C14.69 24.9592 15.2815 24.8613 15.7745 25.155C16.1689 25.4486 16.2675 26.0359 15.9717 26.5253L10.6477 33.1811C10.3519 33.4747 10.1547 33.6705 9.85895 33.6705Z" fill="url(#paint7_linear_15229_3932)"/><path d="M9.85895 47.4714C9.56317 47.4714 9.36598 47.3735 9.16877 47.1777L6.11236 44.1434C5.71799 43.7519 5.71799 43.1646 6.11236 42.7731C6.50674 42.3816 7.09829 42.3816 7.49266 42.7731L9.76032 45.0244L14.3942 39.1516C14.69 38.7601 15.2815 38.6622 15.7745 38.9559C16.1689 39.2495 16.2675 39.8367 15.9717 40.3262L10.6477 46.982C10.3519 47.3735 10.1547 47.4714 9.85895 47.4714Z" fill="url(#paint8_linear_15229_3932)"/><path d="M60.4368 56.3786H21.5916C21.0987 56.3786 20.6057 55.9871 20.6057 55.3998C20.6057 54.8125 21.0001 54.421 21.5916 54.421H60.4368C60.9298 54.421 61.4227 54.8125 61.4227 55.3998C61.4227 55.9871 61.0284 56.3786 60.4368 56.3786Z" fill="url(#paint9_linear_15229_3932)"/><path d="M60.4368 60H15.0842C14.5912 60 14.0983 59.6085 14.0983 59.0212C14.0983 58.5318 14.4926 58.0424 15.0842 58.0424H60.4368C60.9298 58.0424 61.4227 58.4339 61.4227 59.0212C61.4227 59.6085 61.0284 60 60.4368 60Z" fill="url(#paint10_linear_15229_3932)"/><path d="M61.423 5.38342C61.2259 5.38342 60.9301 5.28554 60.7329 5.08978L57.085 1.66396C56.6906 1.27244 56.6906 0.685158 57.085 0.293639C57.4793 -0.0978797 58.0709 -0.0978797 58.4653 0.293639L62.1132 3.71946C62.5075 4.11098 62.5075 4.69826 62.1132 5.08978C61.916 5.28554 61.7189 5.38342 61.423 5.38342Z" fill="url(#paint11_linear_15229_3932)"/><defs><linearGradient id="paint0_linear_15229_3932" x1="20.5019" y1="60" x2="20.5019" y2="-2.0379e-06" gradientUnits="userSpaceOnUse"><stop stop-color="#0076C9"/><stop offset="1" stop-color="#0BCDD0"/></linearGradient><linearGradient id="paint1_linear_15229_3932" x1="20.5019" y1="60" x2="20.5019" y2="-2.0379e-06" gradientUnits="userSpaceOnUse"><stop stop-color="#0076C9"/><stop offset="1" stop-color="#0BCDD0"/></linearGradient><linearGradient id="paint2_linear_15229_3932" x1="20.5019" y1="60" x2="20.5019" y2="-2.0379e-06" gradientUnits="userSpaceOnUse"><stop stop-color="#0076C9"/><stop offset="1" stop-color="#0BCDD0"/></linearGradient><linearGradient id="paint3_linear_15229_3932" x1="20.5019" y1="60" x2="20.5019" y2="-2.0379e-06" gradientUnits="userSpaceOnUse"><stop stop-color="#0076C9"/><stop offset="1" stop-color="#0BCDD0"/></linearGradient><linearGradient id="paint4_linear_15229_3932" x1="20.5019" y1="60" x2="20.5019" y2="-2.0379e-06" gradientUnits="userSpaceOnUse"><stop stop-color="#0076C9"/><stop offset="1" stop-color="#0BCDD0"/></linearGradient><linearGradient id="paint5_linear_15229_3932" x1="20.5019" y1="60" x2="20.5019" y2="-2.0379e-06" gradientUnits="userSpaceOnUse"><stop stop-color="#0076C9"/><stop offset="1" stop-color="#0BCDD0"/></linearGradient><linearGradient id="paint6_linear_15229_3932" x1="20.5019" y1="60" x2="20.5019" y2="-2.0379e-06" gradientUnits="userSpaceOnUse"><stop stop-color="#0076C9"/><stop offset="1" stop-color="#0BCDD0"/></linearGradient><linearGradient id="paint7_linear_15229_3932" x1="20.5019" y1="60" x2="20.5019" y2="-2.0379e-06" gradientUnits="userSpaceOnUse"><stop stop-color="#0076C9"/><stop offset="1" stop-color="#0BCDD0"/></linearGradient><linearGradient id="paint8_linear_15229_3932" x1="20.5019" y1="60" x2="20.5019" y2="-2.0379e-06" gradientUnits="userSpaceOnUse"><stop stop-color="#0076C9"/><stop offset="1" stop-color="#0BCDD0"/></linearGradient><linearGradient id="paint9_linear_15229_3932" x1="20.5019" y1="60" x2="20.5019" y2="-2.0379e-06" gradientUnits="userSpaceOnUse"><stop stop-color="#0076C9"/><stop offset="1" stop-color="#0BCDD0"/></linearGradient><linearGradient id="paint10_linear_15229_3932" x1="20.5019" y1="60" x2="20.5019" y2="-2.0379e-06" gradientUnits="userSpaceOnUse"><stop stop-color="#0076C9"/><stop offset="1" stop-color="#0BCDD0"/></linearGradient><linearGradient id="paint11_linear_15229_3932" x1="20.5019" y1="60" x2="20.5019" y2="-2.0379e-06" gradientUnits="userSpaceOnUse"><stop stop-color="#0076C9"/><stop offset="1" stop-color="#0BCDD0"/></linearGradient></defs></svg>