<svg width="82" height="64" viewBox="0 0 82 64" fill="none" xmlns="http://www.w3.org/2000/svg"><path d="M81.0207 48.7423H80.0837V40.7344C80.1107 37.6574 78.0323 34.9612 75.0478 34.1881L72.6301 33.5419C72.1057 33.415 71.6661 33.065 71.4231 32.5804L65.7241 21.7799H65.7279C65.5583 21.4606 65.2228 21.2568 64.8603 21.2568H54.0987V11.6989C54.0987 11.1565 53.6591 10.7219 53.1193 10.7219H42.9627C42.8972 10.4681 42.7314 10.2527 42.5077 10.1219L25.156 0.132698C24.8553 -0.0442325 24.4812 -0.0442325 24.1766 0.132698L6.82887 10.1219C6.60136 10.2527 6.43942 10.468 6.37001 10.7219H0.979417C0.439577 10.7219 0 11.1565 0 11.6989V45.4533C0 45.9918 0.439577 46.4303 0.979417 46.4303H8.63734V55.6344C8.63734 56.1729 9.07692 56.6114 9.62061 56.6114H13.8351H13.8313C14.3326 60.823 17.9109 63.9962 22.164 63.9962C26.4171 63.9962 29.9955 60.823 30.4967 56.6114H52.1168C52.6142 60.8268 56.1925 64 60.4495 64C64.7026 64 68.2809 60.8268 68.7822 56.6114H81.0206C81.5604 56.6114 82 56.1729 82 55.6344V49.7189C82 49.1804 81.5605 48.7423 81.0207 48.7423ZM69.2216 32.607H57.5844V23.2105H64.2667L69.2216 32.607ZM55.6259 23.2105V33.5837C55.6259 34.1261 56.0655 34.5645 56.6053 34.5645H70.5139C70.9728 34.9761 71.5241 35.2761 72.118 35.4299L74.5357 36.0761H74.5395C76.6603 36.6261 78.1371 38.5454 78.1178 40.734V42.8494H73.3904C73.1282 42.8417 72.8698 42.9417 72.677 43.1263C72.4881 43.3071 72.3801 43.5609 72.3801 43.8263C72.3801 44.0917 72.4881 44.3455 72.677 44.5302C72.8698 44.7148 73.1282 44.8109 73.3904 44.8032H78.1217V48.7418H65.2002C62.3353 46.7725 58.5525 46.7725 55.6876 48.7418H54.0989V23.2101L55.6259 23.2105ZM44.42 27.4145C44.875 28.1337 45.2067 28.9299 45.3917 29.7607C45.4804 30.1607 45.8082 30.4607 46.2092 30.5145L47.7902 30.7376V32.0453L46.2092 32.2684V32.2722C45.8082 32.3261 45.4804 32.6299 45.3917 33.0261C45.2067 33.8607 44.875 34.653 44.4162 35.3723C44.2003 35.7185 44.2195 36.1608 44.4625 36.4839L45.4226 37.757L44.4933 38.6801L43.217 37.7224V37.7262C42.8931 37.4801 42.4496 37.4647 42.1026 37.6801C41.3815 38.1378 40.5833 38.4686 39.7505 38.6532C39.3533 38.7416 39.0487 39.0686 38.9947 39.4724L38.7711 41.0494L37.4601 41.0456L37.2364 39.4686V39.4724C37.1786 39.0686 36.8778 38.7416 36.4807 38.6532C35.6439 38.4686 34.8458 38.1378 34.1247 37.6801C33.7815 37.4647 33.3381 37.4801 33.0103 37.7262L31.734 38.684L30.8047 37.757L31.7648 36.4839H31.7687C32.0116 36.1608 32.0309 35.7185 31.8111 35.3723C31.3522 34.6531 31.0245 33.8568 30.8394 33.0261C30.7507 32.6299 30.4229 32.3299 30.0181 32.2722L28.4371 32.0492L28.4409 30.7415L30.0219 30.5184L30.0181 30.5145C30.4229 30.4607 30.7507 30.1607 30.8394 29.7607C31.0245 28.9299 31.3522 28.1337 31.8111 27.4145C32.0309 27.0683 32.0116 26.6298 31.7687 26.3029L30.8085 25.0298L31.7378 24.1028L33.0142 25.0605H33.0103C33.3381 25.3067 33.7815 25.3259 34.1247 25.1105C34.8457 24.6528 35.644 24.3259 36.4807 24.1374C36.8778 24.049 37.1786 23.7259 37.2364 23.322L37.4601 21.745H38.7711L38.9947 23.322C39.0525 23.7259 39.3533 24.049 39.7505 24.1374C40.3751 24.2759 40.9805 24.4951 41.5473 24.7913H41.5512C41.7401 24.8913 41.9252 24.9951 42.1026 25.1067C42.4496 25.3221 42.8931 25.3067 43.217 25.0644L44.4933 24.1067L45.4226 25.0336L44.4625 26.3067V26.3029C44.2195 26.6298 44.2003 27.0722 44.42 27.4145ZM41.0383 22.4644C40.9728 22.4452 40.9111 22.4182 40.8417 22.4028L40.5911 20.6297H40.5872C40.5178 20.1451 40.1052 19.7874 39.6155 19.7874H36.6078C36.1181 19.7874 35.7055 20.1451 35.6361 20.6297L35.3855 22.4028V22.399C34.7916 22.5798 34.2171 22.8182 33.6695 23.1106L32.2313 22.0336V22.0297C31.8419 21.7374 31.2943 21.7759 30.9472 22.122L28.8149 24.249V24.2452C28.4717 24.5914 28.4331 25.1375 28.7262 25.526L29.8059 26.9568V26.9606C29.5128 27.5068 29.2776 28.0799 29.0964 28.6722L27.3188 28.9223C26.8368 28.9915 26.4782 29.403 26.4782 29.8915V32.8993C26.4782 33.3839 26.8368 33.7993 27.3188 33.8647L29.0964 34.1147V34.1186C29.2738 34.7109 29.5128 35.284 29.8059 35.8302L28.7301 37.261C28.6607 37.3533 28.6067 37.4571 28.5759 37.5648L25.6493 39.2533V21.5297L41.0188 12.6795H41.0381L41.0383 22.4644ZM8.29736 12.6642L12.3385 14.9912V23.0067C12.3385 23.3567 12.5274 23.6798 12.832 23.8529L18.1803 26.9337C18.481 27.1068 18.8551 27.1068 19.1597 26.9337C19.4643 26.7568 19.6494 26.4337 19.6494 26.0837V19.2028L23.6905 21.5298V39.2533L8.30119 30.3915L8.29736 12.6642ZM34.0633 7.51399L18.674 16.3758L15.2846 14.4257L30.6739 5.56391L34.0633 7.51399ZM40.0632 10.9718L24.6739 19.8335L20.6328 17.5065L36.0221 8.64475L40.0632 10.9718ZM14.2972 16.1181L17.6866 18.0682V24.3914L14.2972 22.4413V16.1181ZM24.662 2.10664L28.707 4.43364L13.3177 13.2954L9.27659 10.9684L24.662 2.10664ZM1.95814 12.6758H6.33851V30.9527C6.33851 31.3027 6.52745 31.6258 6.83207 31.7989L24.1759 41.791C24.4805 41.9641 24.8545 41.9641 25.1553 41.791L29.5472 39.264L30.9508 40.6679C31.294 41.0141 31.8415 41.0525 32.2349 40.7564L33.6692 39.6833C34.2168 39.9756 34.7913 40.2141 35.3852 40.391L35.6358 42.1642C35.7052 42.645 36.1178 43.0026 36.6075 43.0026H39.619C40.1049 43.0026 40.5213 42.645 40.5869 42.1642L40.8375 40.391H40.8414C41.4352 40.2141 42.0097 39.9756 42.5573 39.6833L43.9955 40.7603H43.9917C44.385 41.0526 44.9325 41.0142 45.2757 40.6719L47.4158 38.541C47.7629 38.1948 47.8014 37.6487 47.5045 37.2602L46.4248 35.8294V35.8255C46.7179 35.2794 46.9569 34.7063 47.1343 34.1139L48.9119 33.8639C49.3978 33.7947 49.7564 33.3832 49.7564 32.8947V29.8907C49.7564 29.4023 49.3978 28.9907 48.9119 28.9215L47.1343 28.6715C46.9569 28.0791 46.7178 27.506 46.4248 26.9599L47.5045 25.5252C47.8014 25.1368 47.7629 24.5906 47.4158 24.2444L45.2834 22.1174V22.1212C44.9403 21.7751 44.3927 21.7366 43.9994 22.0289L42.9969 22.7789L43.0007 12.6746H52.1432V44.4794H1.95771L1.95814 12.6758ZM10.5955 46.4303H52.1397V49.7188C52.1397 49.9803 52.2399 50.2265 52.425 50.4111C52.6101 50.5957 52.8569 50.6957 53.1191 50.6957H53.6705C52.8144 51.8611 52.2784 53.2227 52.1088 54.6573H30.4957C29.9944 50.4457 26.4161 47.2725 22.163 47.2725C17.9099 47.2725 14.3315 50.4457 13.8303 54.6573H10.5952L10.5955 46.4303ZM22.1636 62.0496C19.5647 62.0496 17.2164 60.4842 16.2216 58.088C15.2268 55.6918 15.7782 52.9302 17.6175 51.0955C19.4568 49.2608 22.2216 48.7108 24.6277 49.7069C27.0299 50.6993 28.5954 53.0378 28.5954 55.634C28.5916 59.1764 25.7149 62.0458 22.1636 62.0496ZM60.4414 62.0496C57.8425 62.0496 55.4942 60.4881 54.4994 58.088C53.5046 55.6918 54.0559 52.9302 55.8953 51.0955C57.7346 49.2608 60.4993 48.7108 62.9054 49.7069C65.3077 50.6993 66.8732 53.0378 66.8732 55.634C66.8693 59.1726 63.9966 62.0418 60.4453 62.0495L60.4414 62.0496ZM80.0408 54.6571H68.7737C68.6079 53.2225 68.0681 51.8609 67.2159 50.6955H80.0407L80.0408 54.6571ZM22.1626 52.4494C20.8709 52.4494 19.7064 53.2225 19.2128 54.4148C18.7192 55.6071 18.993 56.9764 19.903 57.8879C20.8169 58.7995 22.1934 59.0725 23.3849 58.5764C24.5802 58.0841 25.3592 56.9225 25.3592 55.634C25.3553 53.8762 23.9287 52.4494 22.1626 52.4494ZM22.1626 56.8649C21.6652 56.8649 21.2141 56.5649 21.0252 56.1033C20.8324 55.6456 20.9365 55.1148 21.2912 54.7648C21.646 54.4109 22.1742 54.3071 22.637 54.4956C23.0958 54.6879 23.3966 55.1379 23.3966 55.634C23.3966 56.3148 22.8451 56.8649 22.1626 56.8649ZM60.4444 52.4494C59.1526 52.4455 57.9881 53.2225 57.4907 54.411C56.9971 55.6033 57.2709 56.9726 58.1809 57.8879C59.0948 58.7995 60.4713 59.0725 61.6628 58.5764C62.8581 58.0841 63.637 56.9225 63.637 55.634C63.6332 53.8762 62.2066 52.4532 60.4444 52.4494ZM60.4444 56.8649C59.9469 56.8649 59.4958 56.5687 59.303 56.1072C59.1102 55.6456 59.2143 55.1187 59.5691 54.7648C59.92 54.411 60.4521 54.3071 60.9148 54.4956C61.3737 54.6879 61.6745 55.1379 61.6745 55.634C61.6745 56.311 61.1269 56.861 60.4444 56.8649ZM33.6222 26.9141C31.8099 28.7256 31.2662 31.4527 32.2495 33.8181C33.2327 36.1835 35.5463 37.7259 38.1144 37.7259C40.6825 37.7259 42.9999 36.1836 43.9831 33.8181C44.9664 31.4527 44.4227 28.7256 42.6066 26.9141C40.1234 24.4448 36.1055 24.4448 33.6222 26.9141ZM41.2184 34.4873C39.9614 35.7412 38.0758 36.1143 36.437 35.4335C34.7981 34.7566 33.7301 33.1642 33.7301 31.3949C33.7301 29.6256 34.7981 28.0294 36.437 27.3525C38.0758 26.6717 39.9613 27.0486 41.2184 28.2987C42.9305 30.0103 42.9305 32.7796 41.2184 34.4873ZM41.2878 29.2103C41.6657 29.591 41.6657 30.2064 41.2878 30.5872L38.2917 33.5796C37.9099 33.9565 37.293 33.9565 36.9113 33.5796L34.9447 31.618C34.7365 31.4411 34.6131 31.1834 34.6016 30.9141C34.59 30.6411 34.6941 30.3757 34.8869 30.1834C35.0797 29.991 35.3457 29.8872 35.6195 29.8987C35.8933 29.9064 36.1478 30.0334 36.3252 30.2411L37.5977 31.5104L39.8958 29.2142H39.8997C40.0847 29.0296 40.3315 28.9257 40.5937 28.9257C40.8521 28.9257 41.1027 29.0256 41.2878 29.2103Z" fill="url(#paint0_linear_15190_3863)"/><defs><linearGradient id="paint0_linear_15190_3863" x1="26.685" y1="64" x2="26.685" y2="-2.17377e-06" gradientUnits="userSpaceOnUse"><stop stop-color="#0076C9"/><stop offset="1" stop-color="#0BCDD0"/></linearGradient></defs></svg>