<svg width="74" height="74" viewBox="0 0 74 74" fill="none" xmlns="http://www.w3.org/2000/svg"><path fill-rule="evenodd" clip-rule="evenodd" d="M9.28502 34.1528V50.2363C9.28502 51.6553 10.4363 52.8127 11.8615 52.8127H27.9392C29.3583 52.8127 30.5157 51.6615 30.5157 50.2363V34.1528C30.5157 32.7337 29.3645 31.5764 27.9392 31.5764H11.8552C10.4361 31.5764 9.28502 32.7338 9.28502 34.1528ZM29.0043 34.1528V50.2363C29.0043 50.818 28.524 51.3013 27.9391 51.3013H11.8551C11.2733 51.3013 10.79 50.8211 10.79 50.2363V34.1528C10.79 33.571 11.2702 33.0877 11.8551 33.0877H16.174V39.0132C16.174 39.9275 16.9221 40.6755 17.8363 40.6755H21.9582C22.8725 40.6755 23.6205 39.9275 23.6205 39.0132V33.0877H27.9394C28.5212 33.0908 29.0043 33.5617 29.0043 34.1528ZM22.1152 33.0908V39.0163C22.1152 39.1025 22.0444 39.1733 21.9583 39.1733H17.8364C17.7502 39.1733 17.6794 39.1025 17.6794 39.0163V33.0908H22.1152ZM64.1589 54.3184H9.84532C4.41522 54.3184 0.00421953 58.7326 0.00421953 64.1592C0.00421953 69.5891 4.41853 74 9.84532 74H64.1589C69.589 74 74 69.5858 74 64.1592C74 58.7326 69.5888 54.3184 64.1589 54.3184ZM64.1589 72.498H9.84532C5.25252 72.498 1.50938 68.7642 1.50938 64.1624C1.50938 59.5697 5.24337 55.8267 9.84532 55.8267H64.1589C68.7517 55.8267 72.4948 59.5606 72.4948 64.1624C72.4948 68.755 68.7516 72.498 64.1589 72.498ZM64.1589 58.8495H9.84532C6.91474 58.8495 4.53524 61.2382 4.53524 64.1595C4.53524 67.0899 6.92396 69.4694 9.84532 69.4694H64.1589C67.0895 69.4694 69.469 67.0807 69.469 64.1595C69.469 61.229 67.0895 58.8495 64.1589 58.8495ZM37.0021 67.9055C34.9366 67.9055 33.2589 66.2279 33.2589 64.1624C33.2589 62.0969 34.9366 60.4193 37.0021 60.4193C39.0677 60.4193 40.7453 62.0969 40.7453 64.1624C40.7453 66.2248 39.0677 67.9055 37.0021 67.9055ZM6.04064 64.1624C6.04064 62.0661 7.75219 60.3577 9.8454 60.3577C11.9418 60.3577 13.6502 62.0692 13.6502 64.1624C13.6502 66.2587 11.9386 67.967 9.8454 67.967C7.74904 67.967 6.04064 66.2586 6.04064 64.1624ZM15.1583 64.1624C15.1583 62.6725 14.5427 61.3242 13.5514 60.3577H33.3786C32.369 61.3182 31.7471 62.6664 31.7471 64.1624C31.7471 65.6584 32.3782 67.0067 33.3786 67.967H13.5483C14.5425 66.9974 15.1583 65.6522 15.1583 64.1624ZM40.6192 67.967C41.6289 67.0066 42.2507 65.6584 42.2507 64.1624C42.2507 62.6664 41.6197 61.3181 40.6192 60.3577H60.4464C59.4522 61.3274 58.8395 62.6756 58.8395 64.1624C58.8395 65.6522 59.4552 67.0005 60.4464 67.967H40.6192ZM64.1589 67.967C62.0626 67.967 60.3541 66.2555 60.3541 64.1624C60.3541 62.0661 62.0657 60.3577 64.1589 60.3577C66.2553 60.3577 67.9637 62.0692 67.9637 64.1624C67.9637 66.2587 66.2552 67.967 64.1589 67.967ZM2.07599 17.4227L3.98455 17.5889C4.27699 17.6135 4.39396 17.8259 4.43398 17.9121C4.474 17.9983 4.53557 18.2353 4.34779 18.4569L3.12569 19.9314C2.44846 20.744 2.44846 21.8861 3.1103 22.7048C3.74135 23.4836 4.45856 24.1947 5.2466 24.8257C6.07468 25.4875 7.2075 25.4721 8.02013 24.7857L9.47927 23.5575C9.70091 23.3697 9.93485 23.4313 10.0241 23.4713C10.1103 23.5113 10.3227 23.6221 10.3566 23.9115L10.529 25.82C10.6244 26.8665 11.4278 27.6792 12.4837 27.79C12.9639 27.8362 13.4442 27.8608 13.9336 27.8608C14.4538 27.8608 14.974 27.83 15.4851 27.7746C16.5317 27.6577 17.3289 26.8358 17.4244 25.7892L17.5906 23.8807C17.6152 23.5883 17.8276 23.4713 17.9138 23.4313C18 23.3913 18.237 23.3297 18.4587 23.5175L19.9332 24.7395C20.7458 25.4168 21.8879 25.4168 22.7067 24.7549C23.4855 24.1239 24.1966 23.4067 24.8277 22.6187C25.4895 21.7906 25.4741 20.6579 24.7876 19.8453L23.5594 18.3862C23.3716 18.1645 23.4332 17.9306 23.4732 17.8413C23.5132 17.7551 23.624 17.5427 23.9134 17.5089L25.822 17.3365C26.8686 17.2411 27.6813 16.4377 27.7921 15.391C27.8936 14.3968 27.8936 13.381 27.7828 12.3898C27.6658 11.3432 26.844 10.546 25.7973 10.4505L23.8888 10.2843C23.5963 10.2597 23.4794 10.0473 23.4394 9.9611C23.3993 9.87491 23.3378 9.63789 23.5256 9.41626L24.7477 7.9418C25.4249 7.12919 25.4249 5.98711 24.763 5.16836C24.132 4.38958 23.4148 3.67853 22.6267 3.04749C21.7987 2.38568 20.6658 2.40107 19.8532 3.0875L18.3941 4.31571C18.1724 4.50348 17.9385 4.44192 17.8492 4.4019C17.763 4.36189 17.5506 4.25107 17.5168 3.96172L17.3444 2.05322C17.2489 1.00665 16.4455 0.193966 15.3988 0.0831708C14.3768 -0.0214861 13.361 -0.0153316 12.3667 0.0954836C11.3201 0.212457 10.5228 1.03433 10.4274 2.0809L10.2704 3.9894C10.2458 4.28183 10.0334 4.3988 9.94717 4.43882C9.86098 4.47883 9.62395 4.5404 9.40231 4.35262L7.9278 3.13056C7.11517 2.45336 5.97306 2.45336 5.15428 3.11517C4.37854 3.74312 3.66747 4.46032 3.03641 5.24834C2.37458 6.07639 2.38997 7.20917 3.07643 8.02178L4.30467 9.48087C4.49245 9.7025 4.43089 9.93645 4.39087 10.0257C4.35085 10.1119 4.24003 10.3243 3.95068 10.3582L2.04518 10.5275C0.998582 10.6229 0.185872 11.4263 0.0750734 12.4729C-0.0265134 13.4672 -0.0265134 14.483 0.0843084 15.4742C0.201286 16.5331 1.02017 17.3303 2.07599 17.4227ZM1.58038 12.6391C1.61116 12.3067 1.85742 12.0635 2.1868 12.0389L4.08615 11.8665C4.84956 11.7957 5.49604 11.3155 5.78848 10.6044C6.08092 9.89644 5.95471 9.09915 5.45602 8.51743L4.22777 7.05834C4.01537 6.80593 4.00614 6.45809 4.21854 6.19955C4.77879 5.49773 5.40983 4.86055 6.10859 4.29105C6.36716 4.07865 6.70885 4.08481 6.9674 4.30028L8.44191 5.52234C9.03294 6.01178 9.83635 6.12875 10.5383 5.83632C11.2401 5.5439 11.7203 4.88211 11.7819 4.12482L11.9481 2.21632C11.9789 1.88388 12.2159 1.6407 12.5484 1.60068C13.438 1.4991 14.3368 1.4991 15.2265 1.59145C15.5589 1.62223 15.8021 1.86848 15.8267 2.19785L15.9991 4.10635C16.0699 4.86975 16.5501 5.5162 17.2612 5.80863C17.9693 6.10106 18.7666 5.97486 19.3483 5.47618L20.8074 4.24798C21.0599 4.03558 21.4077 4.02635 21.6663 4.23874C22.3681 4.79898 23.0053 5.42999 23.5748 6.12873C23.7872 6.38729 23.7811 6.72898 23.5656 6.98751L22.3435 8.46197C21.854 9.05299 21.7371 9.85023 22.0295 10.5583C22.3219 11.2601 22.9837 11.7403 23.7411 11.8018L25.6496 11.9681C25.9821 11.9988 26.2253 12.2359 26.2653 12.5683C26.3669 13.4579 26.3669 14.3567 26.2745 15.2463C26.2437 15.5788 25.9975 15.8219 25.6681 15.8466L23.7687 16.0189C23.0053 16.0897 22.3589 16.5699 22.0664 17.281C21.774 17.989 21.9002 18.7863 22.3989 19.368L23.6271 20.8271C23.8395 21.0795 23.8488 21.4274 23.6364 21.6859C23.0761 22.3877 22.4451 23.0249 21.7463 23.5944C21.4877 23.8068 21.146 23.8007 20.8875 23.5852L19.413 22.3631C18.822 21.8737 18.0247 21.7567 17.3166 22.0491C16.6148 22.3416 16.1346 23.0034 16.073 23.7606L15.9068 25.6691C15.876 26.0016 15.639 26.2448 15.3065 26.2848C14.4169 26.3864 13.5181 26.3864 12.6284 26.294C12.296 26.2632 12.0528 26.017 12.0282 25.6876L11.8558 23.7791C11.785 23.0157 11.3048 22.3693 10.5936 22.0768C10.3412 21.9752 10.0826 21.926 9.82099 21.926C9.34693 21.926 8.88211 22.0922 8.50346 22.4062L7.04432 23.6344C6.7919 23.8468 6.44405 23.856 6.1855 23.6436C5.48366 23.0834 4.84646 22.4524 4.27694 21.7537C4.06454 21.4951 4.07069 21.1534 4.28618 20.8949L5.50827 19.4204C5.99772 18.8294 6.1147 18.0322 5.82226 17.3241C5.52983 16.6223 4.86802 16.1421 4.11071 16.0805L2.20214 15.9143C1.86968 15.8835 1.6265 15.6465 1.58649 15.3141C1.49413 14.4306 1.48495 13.5226 1.58038 12.6391ZM13.9212 19.9684C17.255 19.9684 19.967 17.2565 19.967 13.9228C19.967 10.589 17.255 7.87714 13.9212 7.87714C10.5873 7.87714 7.87536 10.589 7.87536 13.9228C7.87536 17.2595 10.5935 19.9684 13.9212 19.9684ZM13.9212 9.39471C16.4208 9.39471 18.4524 11.4263 18.4524 13.9258C18.4524 16.4253 16.4208 18.4569 13.9212 18.4569C11.4216 18.4569 9.3899 16.4253 9.3899 13.9258C9.3899 11.4263 11.4216 9.39471 13.9212 9.39471ZM41.8108 36.092V42.6886C41.8108 44.1077 42.9621 45.265 44.3873 45.265H60.4713C61.8904 45.265 63.0478 44.1138 63.0478 42.6886V36.092L67.6253 23.5239C67.7269 23.2315 67.6499 22.9083 67.419 22.7051L57.8459 14.1535C57.8705 13.9411 57.8859 13.7348 57.8859 13.5163C57.8859 11.9711 57.2394 10.5766 56.2082 9.58542V0.757239C56.2082 0.338604 55.8696 0 55.4509 0H49.4052C48.9865 0 48.6479 0.338604 48.6479 0.757239V9.58227C47.6166 10.5765 46.9702 11.9709 46.9702 13.5131C46.9702 13.7255 46.9856 13.9379 47.0102 14.1503L37.4426 22.7043C37.2148 22.9105 37.1286 23.2337 37.2363 23.5231L41.8108 36.092ZM61.5277 42.6886C61.5277 43.2704 61.0475 43.7537 60.4626 43.7537L44.388 43.7506C43.8062 43.7506 43.3229 43.2704 43.3229 42.6855V26.6052C43.3229 26.0234 43.8031 25.5401 44.388 25.5401H48.7069V31.4656C48.7069 32.3799 49.455 33.1279 50.3692 33.1279H54.4911C55.4054 33.1279 56.1534 32.3799 56.1534 31.4656V25.5401H60.4723C61.0541 25.5401 61.5374 26.0203 61.5374 26.6052L61.5343 42.6887L61.5277 42.6886ZM54.6418 25.5397V31.4652C54.6418 31.5514 54.571 31.6222 54.4848 31.6222H50.363C50.2768 31.6222 50.206 31.5514 50.206 31.4652L50.2029 25.5397H54.6418ZM50.1629 1.5146H54.6942V8.56059C54.0016 8.24662 53.235 8.065 52.4316 8.065C51.619 8.065 50.8555 8.24662 50.1691 8.56059L50.1721 1.5146H50.1629ZM52.4255 9.57603C54.6018 9.57603 56.3749 11.3491 56.3749 13.5254C56.3749 15.7016 54.6018 17.4747 52.4255 17.4747C50.2491 17.4747 48.476 15.7016 48.476 13.5254C48.476 11.3491 50.2491 9.57603 52.4255 9.57603ZM47.4602 15.7755C48.319 17.6594 50.2275 18.9738 52.4255 18.9738C54.6326 18.9738 56.5319 17.6563 57.3908 15.7755L66.0191 23.4833L63.0331 31.6716V26.6049C63.0331 25.1858 61.8818 24.0285 60.4566 24.0285H44.3876C42.9685 24.0285 41.8111 25.1797 41.8111 26.6049V31.6808L38.8251 23.4925L47.4602 15.7755ZM51.2187 13.5223C51.2187 12.8605 51.7636 12.3157 52.4254 12.3157C53.0872 12.3157 53.632 12.8605 53.632 13.5223C53.632 14.1841 53.0872 14.7289 52.4254 14.7289C51.7636 14.7289 51.2187 14.184 51.2187 13.5223ZM65.3633 64.162C65.3633 64.8238 64.8185 65.3686 64.1567 65.3686C63.4949 65.3686 62.95 64.8237 62.95 64.162C62.95 63.5002 63.4949 62.9554 64.1567 62.9554C64.8216 62.9554 65.3633 63.5002 65.3633 64.162ZM38.2097 64.162C38.2097 64.8238 37.6648 65.3686 37.003 65.3686C36.3413 65.3686 35.7964 64.8237 35.7964 64.162C35.7964 63.5002 36.3413 62.9554 37.003 62.9554C37.6648 62.9554 38.2097 63.5002 38.2097 64.162ZM11.0529 64.162C11.0529 64.8238 10.508 65.3686 9.84625 65.3686C9.18442 65.3686 8.6396 64.8237 8.6396 64.162C8.6396 63.5002 9.18446 62.9554 9.84625 62.9554C10.5081 62.9554 11.0529 63.5002 11.0529 64.162Z" fill="url(#paint0_linear_15229_3933)"/><defs><linearGradient id="paint0_linear_15229_3933" x1="24.0816" y1="74" x2="24.0816" y2="-2.51342e-06" gradientUnits="userSpaceOnUse"><stop stop-color="#0076C9"/><stop offset="1" stop-color="#0BCDD0"/></linearGradient></defs></svg>