<svg width="73" height="60" viewBox="0 0 73 60" fill="none" xmlns="http://www.w3.org/2000/svg">
<path d="M35.1132 40.1171C35.1132 40.5052 34.9599 40.8787 34.6862 41.1533C34.4125 41.428 34.0402 41.5818 33.6533 41.5818H28.2117C27.4052 41.5818 26.7519 40.9263 26.7519 40.1171C26.7519 39.3079 27.4052 38.6524 28.2117 38.6524H33.6533C34.0402 38.6524 34.4125 38.8062 34.6862 39.0809C34.96 39.3555 35.1132 39.7289 35.1132 40.1171ZM72.9967 1.46504V24.2181C72.9967 24.6063 72.8434 24.9761 72.5697 25.2507C72.296 25.5254 71.9237 25.6828 71.5368 25.6828H61.8648V43.8118C61.8648 44.1999 61.7115 44.5734 61.4378 44.8481C61.1641 45.1227 60.7918 45.2765 60.4049 45.2765H36.708V49.6961H39.9452C44.3832 49.6997 47.9818 53.3101 47.9854 57.7664V58.5353C47.9854 58.9234 47.8322 59.2969 47.5584 59.5716C47.2847 59.8462 46.9124 60 46.5256 60H15.343C14.5364 60 13.8831 59.3446 13.8831 58.5353V57.7664C13.8867 53.3138 17.4817 49.7034 21.9233 49.6961H25.1605V45.2765H1.45986C0.653288 45.2765 0 44.6211 0 43.8119V5.09702C0 4.28779 0.653288 3.63236 1.45986 3.63236H38.8977V1.46466C38.8977 0.655437 39.5509 0 40.3575 0H71.5401H71.5365C71.927 0 72.2956 0.153786 72.5693 0.428411C72.8431 0.703036 73 1.07653 73 1.46469L72.9967 1.46504ZM39.9455 52.6255H21.9236C19.3652 52.6292 17.2009 54.5259 16.8506 57.0671H45.0153C44.665 54.526 42.5003 52.6292 39.9455 52.6255ZM33.7886 45.2766H28.0805V49.6962H33.7886V45.2766ZM58.9495 42.3473L58.9459 38.0338H2.91998V42.3509L58.9495 42.3473ZM16.9168 21.5486C18.7927 21.5486 20.3182 19.7471 20.3182 17.5318C20.3182 15.3165 18.7927 13.4966 16.9168 13.4966C15.0518 13.4966 13.5336 15.3091 13.5336 17.5318C13.5336 19.7581 15.0518 21.5486 16.9168 21.5486ZM25.1613 29.6775H25.1577C25.1577 28.1616 23.9314 26.9313 22.4204 26.9313H11.4133C9.89872 26.9313 8.67244 28.1616 8.67244 29.6775V35.1041L25.1611 35.1078L25.1613 29.6775ZM58.9497 25.6827H51.6139L45.4095 33.4966C45.0226 33.9836 44.373 34.174 43.7854 33.969C43.2015 33.7639 42.8073 33.2074 42.8073 32.5848V25.6826H40.3583C39.5518 25.6826 38.8985 25.0272 38.8985 24.2179V6.56141H2.92008V35.1038H5.75216V29.6772C5.75581 26.5427 8.28499 24.0016 11.4091 23.9979H14.6281C12.1317 22.8299 10.5551 20.296 10.6135 17.5315C10.6135 13.6904 13.4419 10.567 16.9164 10.567C20.4019 10.567 23.2376 13.6904 23.2376 17.5315C23.2923 20.2997 21.712 22.8373 19.2084 23.9979H22.4201C25.5442 24.0016 28.077 26.5427 28.0807 29.6772V35.1038H58.9493L58.9497 25.6827ZM70.0811 2.93241H41.8182V22.7534H44.2671C44.654 22.7534 45.0263 22.9072 45.3 23.1818C45.5737 23.4564 45.727 23.8299 45.727 24.2181V28.3923L49.7672 23.3026C50.0445 22.9548 50.4642 22.7497 50.9095 22.7497H70.0778L70.0811 2.93241ZM62.0227 10.4901C62.8292 10.4901 63.4825 9.83462 63.4825 9.0254C63.4825 8.21618 62.8292 7.56074 62.0227 7.56074H48.0332C47.2267 7.56074 46.5734 8.21618 46.5734 9.0254C46.5734 9.83462 47.2267 10.4901 48.0332 10.4901H62.0227ZM48.037 16.7807H55.0297V16.7771C55.8363 16.7771 56.4896 16.1216 56.4896 15.3124C56.4896 14.5032 55.8363 13.8478 55.0297 13.8478H48.0333C47.2268 13.8478 46.5735 14.5032 46.5735 15.3124C46.5735 16.1216 47.2268 16.7771 48.0333 16.7771L48.037 16.7807Z" fill="url(#paint0_linear_15190_3815)"/>
<defs>
<linearGradient id="paint0_linear_15190_3815" x1="23.7561" y1="60" x2="23.7561" y2="-2.0379e-06" gradientUnits="userSpaceOnUse">
<stop stop-color="#0076C9"/>
<stop offset="1" stop-color="#0BCDD0"/>
</linearGradient>
</defs>
</svg>
