<svg width="80" height="60" viewBox="0 0 80 60" fill="none" xmlns="http://www.w3.org/2000/svg">
<path d="M80 16.0975V15.5654C80 15.4323 79.8667 15.4323 79.8667 15.2993C79.8667 15.1663 79.7333 15.1663 79.7333 15.0332L79.6 14.9002C79.4667 14.9002 79.4667 14.7672 79.3333 14.7672H69.8664V12.1064H78.666C78.7994 12.1064 78.9327 12.1064 79.066 11.9734C79.1994 11.9734 79.1994 11.8403 79.3327 11.8403L79.466 11.7073C79.466 11.7073 79.5994 11.5743 79.5994 11.4412C79.5994 11.3082 79.7327 11.3082 79.7327 11.1751V10.1108C78.3994 6.3858 74.9327 3.99112 70.9331 3.99112C67.8664 3.99112 65.0664 5.45458 63.1997 7.98225H52.9332C52.9332 6.51879 52.3999 5.1885 51.3332 4.2572C50.2665 3.1929 48.9332 2.66075 47.5998 2.66075C46.5332 2.66075 45.4665 2.92682 44.6665 3.59205C44.3998 2.79383 43.9998 2.1286 43.3332 1.46345C42.2665 0.532149 41.0665 0 39.5998 0C37.1998 0 35.1998 1.46346 34.5331 3.59205C33.7331 3.0599 32.6664 2.66075 31.5998 2.66075C29.3331 2.66075 27.3331 4.1242 26.5331 6.2528C25.7331 5.72065 24.6664 5.3215 23.5997 5.3215C21.5997 5.3215 19.9997 6.3858 19.0664 7.98225H16.533C14.7997 5.45449 11.9996 3.99112 8.79962 3.99112C4.7996 3.99112 1.33291 6.3858 0 10.1108V11.1751C0 11.3082 0.133334 11.3082 0.133334 11.4412C0.133334 11.5743 0.266668 11.5743 0.266668 11.7073L0.400002 11.8403C0.533336 11.8403 0.533336 11.9734 0.66667 11.9734C1.06667 12.1064 1.20001 12.1064 1.33334 12.1064H10.2669V14.7672H0.800004C0.66667 14.7672 0.66667 14.9002 0.533336 14.9002L0.400002 15.0332C0.400002 15.0332 0.266668 15.1663 0.266668 15.2993C0.266668 15.4323 0.133334 15.4323 0.133334 15.5654V16.6297C1.46667 20.3547 4.93336 22.7494 8.93295 22.7494C11.9997 22.7494 14.7996 21.2859 16.6663 18.7583H18.533V30.3327C18.533 32.9935 19.5997 35.3882 21.5997 37.2507L21.7331 37.3837C23.0664 38.581 23.8664 40.4436 23.8664 42.3061V46.6963H21.1997C20.3997 46.6963 19.8664 47.2284 19.8664 48.0266V58.6696C19.8664 59.4679 20.3997 60 21.1997 60H53.1999C53.9999 60 54.5332 59.4679 54.5332 58.6696V48.0266C54.5332 47.2284 53.9999 46.6963 53.1999 46.6963H50.5332V41.5078C50.5332 41.2417 51.0665 39.7783 51.8665 38.714L61.5997 25.8096C62.2664 24.7453 62.3997 23.548 61.9997 22.3506L60.6664 18.7586H63.333C65.0663 21.2863 67.9998 22.7497 71.0664 22.7497C75.0664 22.7497 78.5331 20.355 79.866 16.63V16.3639C79.9994 16.2309 80 16.0975 80 16.0975ZM47.7336 5.45453C48.4003 5.45453 49.0669 5.72061 49.6003 6.25276C50.1336 6.78491 50.4003 7.45005 50.4003 8.11528V14.7672H45.8669C45.6003 14.7672 45.3336 14.7672 45.0669 14.9002V8.11524C45.0669 6.65179 46.2669 5.45453 47.7336 5.45453ZM37.0669 5.05542C37.0669 3.72505 38.2669 2.79383 39.7336 2.79383C40.4002 2.79383 41.2003 3.0599 41.6002 3.45902C42.1336 3.85813 42.4002 4.39032 42.4002 5.05546V15.9641C41.2003 16.8954 40.4002 18.3588 40.4002 20.0883C40.4002 21.2856 40.8002 22.483 41.6002 23.4142C41.0668 23.8133 40.4002 24.0794 39.7335 24.0794C38.2668 24.0794 37.0668 23.0151 37.0668 21.8178L37.0669 5.05542ZM29.0668 8.11532C29.0668 6.65187 30.2668 5.45458 31.7335 5.45458C33.2002 5.45458 34.4002 6.65187 34.4002 8.11532V18.7583C34.4002 20.2218 33.2002 21.4191 31.7335 21.4191C30.2668 21.4191 29.0668 20.2218 29.0668 18.7583V8.11532ZM21.0668 10.7761C21.0668 9.31262 22.2668 8.11532 23.7335 8.11532C25.2002 8.11532 26.4002 9.31262 26.4002 10.7761V16.0976C26.4002 17.561 25.2002 18.7583 23.7335 18.7583C22.2668 18.7583 21.0668 17.561 21.0668 16.0976V10.7761ZM15.4668 16.0976C15.3335 16.0976 15.3335 16.2306 15.2002 16.2306C15.0668 16.2306 15.0668 16.3636 14.9335 16.3636C14.8002 16.3636 14.8002 16.4967 14.8002 16.6297L14.6668 16.7628C13.4669 18.7584 11.3335 20.0887 8.93342 20.0887C6.80008 20.0887 4.80002 19.0243 3.60006 17.4279H11.6001C12.4001 17.4279 12.9334 16.8958 12.9334 16.0975V10.776C12.9334 9.97781 12.4001 9.44566 11.6001 9.44566H3.60006C4.80002 7.84921 6.80008 6.78491 8.93342 6.78491C11.3334 6.78491 13.6002 8.11528 14.8001 10.1108L14.9334 10.2438C14.9334 10.3769 15.0668 10.3769 15.0668 10.5099C15.0668 10.5099 15.2001 10.643 15.3334 10.643C15.4668 10.643 15.4668 10.776 15.6001 10.776H18.4001V16.0975L15.4668 16.0976ZM51.7339 57.3396H22.4004V49.3573H51.7339V57.3396ZM59.3339 24.3463L49.6007 37.1179C48.534 38.5814 47.734 40.5769 47.734 41.3751V46.6966H26.4006V42.1733C26.4006 39.5126 25.3339 37.1179 23.3339 35.2554L23.2005 35.1223C21.8672 33.925 21.0672 32.0624 21.0672 30.2V20.4885C21.8672 20.8876 22.8005 21.2867 23.7339 21.2867C24.8005 21.2867 25.8672 20.8876 26.6672 20.3554C27.3339 22.484 29.3339 23.9475 31.7339 23.9475C32.8006 23.9475 33.8673 23.6814 34.6673 23.0162C35.3339 25.0118 37.3339 26.6082 39.734 26.6082C41.334 26.6082 42.8007 25.943 43.734 24.8788C44.4006 25.1448 45.0673 25.2779 45.8673 25.2779H48.8007L38.9344 32.1958L38.801 32.3289C38.001 33.1271 37.6011 34.0583 37.6011 35.1226V38.0494C37.6011 38.8477 38.1344 39.3798 38.9344 39.3798C39.7344 39.3798 40.2678 38.8477 40.2678 38.0494V35.1226C40.2678 34.8565 40.4011 34.4574 40.5344 34.1913L53.7347 25.0119C54.268 24.6128 54.4014 24.0806 54.268 23.5485C54.1347 23.0163 53.6014 22.6172 52.9347 22.6172H45.7347C44.1347 22.6172 42.9347 21.4199 42.9347 19.9564C42.9347 18.493 44.1347 17.2957 45.7347 17.2957H56.2683C56.8016 17.2957 57.3349 17.6948 57.4682 18.227L59.0682 23.1493C59.6016 23.6815 59.4672 24.0803 59.3339 24.3463ZM71.0673 20.0891C68.6673 20.0891 66.4005 18.7587 65.2006 16.7632L65.0672 16.6302C65.0672 16.4971 64.9339 16.4972 64.9339 16.3641C64.9339 16.3641 64.8006 16.2311 64.6672 16.2311C64.5339 16.2311 64.5339 16.098 64.4006 16.098H59.3338C58.5338 15.2998 57.4672 14.7677 56.4005 14.7677H52.9338V10.7765H64.4007C64.5341 10.7765 64.5341 10.6435 64.6674 10.6435C64.8007 10.6435 64.8007 10.5105 64.8007 10.5105C64.9341 10.5105 64.9341 10.3774 64.9341 10.2444L65.0674 10.1114C66.2674 8.11575 68.5341 6.78546 70.9341 6.78546C73.0675 6.78546 75.0675 7.84976 76.2675 9.44621H68.2674C67.4674 9.44621 66.9341 9.97836 66.9341 10.7766V16.0981C66.9341 16.8963 67.4674 17.4285 68.2674 17.4285H76.2675C75.2008 19.0249 73.2006 20.0891 71.0673 20.0891Z" fill="url(#paint0_linear_15190_3816)"/>
<path d="M29.0668 54.6788H26.4002C25.6002 54.6788 25.0668 54.1467 25.0668 53.3484C25.0668 52.5502 25.6002 52.0181 26.4002 52.0181H29.0668C29.8669 52.0181 30.4002 52.5502 30.4002 53.3484C30.4002 54.1467 29.8669 54.6788 29.0668 54.6788Z" fill="url(#paint1_linear_15190_3816)"/>
<defs>
<linearGradient id="paint0_linear_15190_3816" x1="26.0341" y1="60" x2="26.0341" y2="-2.0379e-06" gradientUnits="userSpaceOnUse">
<stop stop-color="#0076C9"/>
<stop offset="1" stop-color="#0BCDD0"/>
</linearGradient>
<linearGradient id="paint1_linear_15190_3816" x1="26.0341" y1="60" x2="26.0341" y2="-2.0379e-06" gradientUnits="userSpaceOnUse">
<stop stop-color="#0076C9"/>
<stop offset="1" stop-color="#0BCDD0"/>
</linearGradient>
</defs>
</svg>
