<svg width="70" height="64" viewBox="0 0 70 64" fill="none" xmlns="http://www.w3.org/2000/svg">
<path d="M35.001 0.761719L0.783982 13.6429C0.63494 13.6987 0.498395 13.7833 0.382208 13.8921C0.26602 14.0008 0.172483 14.1314 0.106981 14.2765C0.0414792 14.4215 0.00530502 14.578 0.000540977 14.7371C-0.00422306 14.8961 0.0225171 15.0546 0.0792222 15.2033C0.192377 15.5016 0.419066 15.7429 0.709709 15.8746C1.00035 16.0062 1.33129 16.0174 1.63015 15.9057L5.96002 14.2746V61.8749C5.9588 62.1949 6.08476 62.5024 6.31018 62.7296C6.53561 62.9568 6.84205 63.0851 7.16211 63.0864H62.8305C62.9898 63.087 63.1476 63.0561 63.2949 62.9954C63.4421 62.9347 63.5759 62.8455 63.6885 62.7329C63.8012 62.6203 63.8904 62.4865 63.9511 62.3392C64.0117 62.192 64.0426 62.0341 64.042 61.8749V14.2769L68.3625 15.9057C68.5109 15.9621 68.6689 15.9886 68.8276 15.9838C68.9863 15.9791 69.1425 15.943 69.2872 15.8778C69.432 15.8125 69.5624 15.7193 69.6711 15.6036C69.7797 15.4879 69.8645 15.3518 69.9205 15.2033C69.9772 15.0547 70.0041 14.8964 69.9995 14.7375C69.9949 14.5785 69.9589 14.4221 69.8936 14.2771C69.8284 14.1321 69.7351 14.0014 69.6191 13.8926C69.5032 13.7837 69.3669 13.6989 69.2181 13.6429L35.001 0.761719ZM35.001 3.3356L61.6284 13.3695V60.6704H55.8113V18.3122C55.8119 18.1529 55.781 17.9951 55.7203 17.8478C55.6596 17.7006 55.5704 17.5668 55.4578 17.4542C55.3452 17.3415 55.2114 17.2523 55.0641 17.1917C54.9168 17.131 54.759 17.1001 54.5998 17.1007H15.3929C15.0728 17.1019 14.7664 17.2303 14.5409 17.4575C14.3155 17.6847 14.1896 17.9921 14.1908 18.3122V60.6704H8.37362V13.3648L35.001 3.3356ZM16.6044 19.5143H53.3953V23.9243H16.6044V19.5143ZM16.6044 26.3379H53.3953V30.7479H16.6044V26.3379ZM16.6044 33.1615H53.3953V60.6704H47.4108V50.6224C47.4114 50.4637 47.3807 50.3065 47.3205 50.1597C47.2603 50.0129 47.1717 49.8794 47.0598 49.7669C46.9479 49.6543 46.815 49.565 46.6685 49.5039C46.5221 49.4428 46.365 49.4112 46.2064 49.4109H41.8058V39.3629C41.8051 39.044 41.6783 38.7384 41.4531 38.5127C41.2279 38.2871 40.9225 38.1597 40.6037 38.1584H29.396C29.2373 38.1578 29.0801 38.1885 28.9333 38.2487C28.7865 38.3089 28.653 38.3975 28.5405 38.5094C28.428 38.6213 28.3386 38.7542 28.2775 38.9007C28.2164 39.0471 28.1848 39.2042 28.1845 39.3629V49.4109H23.7933C23.6341 49.4103 23.4763 49.4412 23.329 49.5019C23.1817 49.5625 23.0479 49.6517 22.9353 49.7644C22.8227 49.877 22.7335 50.0108 22.6728 50.158C22.6121 50.3053 22.5812 50.4631 22.5818 50.6224V60.6704H16.6044V33.1615ZM30.6004 40.5744H39.3922V49.4109H35.001H30.6004V40.5744ZM24.9954 51.8245H33.7895V60.6704H24.9954V51.8245ZM36.2031 51.8245H40.6037H44.9948V60.6704H36.2031V51.8245Z" fill="url(#paint0_linear_15190_3844)"/>
<defs>
<linearGradient id="paint0_linear_15190_3844" x1="22.7799" y1="63.0864" x2="22.7799" y2="0.761717" gradientUnits="userSpaceOnUse">
<stop stop-color="#0076C9"/>
<stop offset="1" stop-color="#0BCDD0"/>
</linearGradient>
</defs>
</svg>
