<svg width="80" height="80" viewBox="0 0 80 80" fill="none" xmlns="http://www.w3.org/2000/svg">
<path d="M59.8839 62.4972H1.53994C0.691118 62.4972 0 61.8099 0 60.961V20.1165C0 19.2676 0.691079 18.5803 1.53994 18.5803H41.3067C42.1555 18.5803 42.8466 19.2676 42.8466 20.1165C42.8466 20.9653 42.1556 21.6564 41.3067 21.6564H3.07931V59.4213H58.3436V38.6923C58.3436 37.8435 59.0346 37.1523 59.8835 37.1523C60.7323 37.1523 61.4197 37.8434 61.4197 38.6923V60.9607C61.4197 61.3663 61.2582 61.7607 60.969 62.0461C60.6835 62.3353 60.2895 62.4972 59.8839 62.4972Z" fill="url(#paint0_linear_15190_3814)"/>
<path d="M45.2959 80H16.1277C15.2751 80 14.5878 79.3089 14.5878 78.4601C14.5915 74.3887 17.8892 71.091 21.9606 71.0873H39.459C43.5303 71.091 46.8318 74.3887 46.8355 78.4601C46.8355 78.8694 46.674 79.2601 46.3848 79.5493C46.0956 79.8347 45.7052 80 45.2959 80ZM17.9498 76.9202H43.4748C42.8363 75.2601 41.2438 74.1671 39.4635 74.1634H21.9651C20.1848 74.1634 18.5883 75.2601 17.9498 76.9202Z" fill="url(#paint1_linear_15190_3814)"/>
<path d="M59.8839 57.0254H1.53994C0.691118 57.0254 0 56.3381 0 55.4892C0 54.6366 0.691079 53.9493 1.53994 53.9493H59.8839C60.7327 53.9493 61.4201 54.6366 61.4201 55.4892C61.4201 56.338 60.7328 57.0254 59.8839 57.0254Z" fill="url(#paint2_linear_15190_3814)"/>
<path d="M62.5578 40.233H57.2094C56.3606 40.233 55.6732 39.5457 55.6732 38.693V33.7503C54.8244 33.4874 54.0056 33.1494 53.2206 32.7325L49.724 36.2292C49.1268 36.8301 48.1503 36.8301 47.5493 36.2292L43.7709 32.4508C43.17 31.8498 43.17 30.8733 43.7709 30.2761L47.2639 26.7832V26.7794C46.8507 25.9982 46.5089 25.1757 46.2498 24.3268H41.3071C40.4545 24.3268 39.7671 23.6395 39.7671 22.7907V17.4423C39.7671 16.5935 40.4544 15.9061 41.3071 15.9061H46.2498C46.5127 15.0573 46.8507 14.2347 47.2676 13.4535L43.7709 9.96057C43.4817 9.67137 43.3202 9.28076 43.3202 8.87139C43.3202 8.46201 43.4817 8.07139 43.7709 7.7822L47.5531 4.00003L47.5493 4.00379C48.1503 3.40285 49.1268 3.40285 49.7239 4.00379L53.2169 7.49673C54.0019 7.07983 54.8244 6.7418 55.6732 6.47889V1.53994C55.6732 0.691117 56.3606 0 57.2094 0H62.5578C62.9634 0 63.3578 0.165253 63.6432 0.450704C63.9324 0.739904 64.0939 1.13051 64.0939 1.53989V6.47884C64.9428 6.74175 65.7653 7.07978 66.5465 7.49668L70.0395 4.00374C70.3287 3.71454 70.7193 3.55304 71.1287 3.55304C71.5381 3.55304 71.9287 3.71454 72.2179 4.00374L76 7.7859L75.9963 7.78215C76.2855 8.07135 76.447 8.46196 76.447 8.87134C76.447 9.28071 76.2855 9.67133 75.9963 9.96053L72.5033 13.4535C72.9202 14.2347 73.2582 15.0573 73.5212 15.9061H78.4601C78.8695 15.9061 79.2601 16.0676 79.5493 16.3568C79.8347 16.6422 80 17.0366 80 17.4422V22.7906C80 23.1962 79.8347 23.5868 79.5493 23.876C79.2601 24.1652 78.8695 24.3267 78.4601 24.3267H73.5212C73.2582 25.1755 72.9202 25.9943 72.5033 26.7793L75.9963 30.2722C76.5972 30.8732 76.5972 31.8459 75.9963 32.4469L72.2141 36.229H72.2179C71.9287 36.5182 71.5381 36.6797 71.1287 36.6797C70.7193 36.6797 70.3287 36.5182 70.0395 36.229L66.5465 32.7361C65.7615 33.153 64.9427 33.491 64.0939 33.7502V38.6891C64.0977 39.0985 63.9362 39.4929 63.647 39.7821C63.3578 40.0713 62.9672 40.233 62.5578 40.233ZM58.7494 37.1569H61.0179V32.5673C61.0179 31.8387 61.525 31.2114 62.2348 31.0575C63.5606 30.7758 64.8226 30.2575 65.9606 29.5213C66.5691 29.1269 67.3691 29.2095 67.8836 29.7241L71.1287 32.9692L72.7363 31.3616L69.4912 28.1166C68.9766 27.6058 68.894 26.802 69.2884 26.1936C70.0208 25.0593 70.5428 23.7973 70.8246 22.4715C70.9748 21.7579 71.6058 21.2509 72.3344 21.2509H76.9203V18.9823H72.3344C71.6058 18.9823 70.9785 18.4753 70.8283 17.7654C70.5466 16.4396 70.0245 15.1776 69.2921 14.0433C68.8977 13.4311 68.9804 12.6311 69.4949 12.1203L72.74 8.87527L71.1325 7.26774L67.8836 10.5128C67.3691 11.0236 66.5691 11.11 65.9606 10.7156C64.8226 9.97948 63.5606 9.45741 62.2386 9.17569C61.5287 9.02545 61.0217 8.39822 61.0217 7.67334V3.07996H58.7494V7.66959V7.66583C58.7494 8.39447 58.2423 9.0179 57.5325 9.17193C56.2104 9.45362 54.9485 9.97569 53.8104 10.7081C53.202 11.1025 52.402 11.0199 51.8874 10.5053L48.6424 7.26023L47.0348 8.86777L50.2761 12.1166C50.7907 12.6311 50.8733 13.4312 50.479 14.0396C49.7428 15.1776 49.2245 16.4396 48.9428 17.7617C48.7888 18.4715 48.1616 18.9785 47.4367 18.9785H42.8433V21.2509H47.4329C48.1616 21.2509 48.7888 21.7579 48.9428 22.4677C49.2245 23.7935 49.7428 25.0555 50.479 26.1935C50.8733 26.802 50.7907 27.602 50.2761 28.1165L47.0311 31.3616L48.6386 32.9691L51.8837 29.7241V29.7203C52.3945 29.2095 53.1982 29.1231 53.8067 29.5175C54.941 30.2537 56.2067 30.7757 57.5325 31.0574C58.2424 31.2114 58.7494 31.8387 58.7494 32.5673V37.1569Z" fill="url(#paint3_linear_15190_3814)"/>
<path d="M59.8833 27.7319C56.8035 27.7319 54.0241 25.8765 52.8448 23.0296C51.6692 20.1827 52.319 16.9075 54.4975 14.7291C56.6759 12.5507 59.951 11.901 62.7979 13.0803C65.6448 14.2597 67.5002 17.0353 67.5002 20.1151C67.4927 24.3216 64.0861 27.7281 59.8833 27.7319ZM59.8833 15.5775C58.0466 15.5775 56.3904 16.6817 55.688 18.3795C54.9856 20.0733 55.3762 22.0264 56.672 23.3259C57.9716 24.6217 59.9245 25.0123 61.6184 24.3099C63.3161 23.6075 64.4203 21.9512 64.4203 20.1146C64.4203 17.6094 62.3885 15.5775 59.8833 15.5775Z" fill="url(#paint4_linear_15190_3814)"/>
<path d="M10.5393 51.4956C8.76276 51.4956 7.16283 50.4252 6.48295 48.7839C5.80307 47.1426 6.17872 45.2496 7.43318 43.9951L15.989 35.4393H15.9928C15.0801 32.1492 16.1205 28.6337 18.6707 26.3689C21.2172 24.1003 24.8342 23.4844 27.9928 24.7726C28.466 24.9679 28.8153 25.3886 28.9167 25.8957C29.0181 26.3989 28.8604 26.921 28.4961 27.2853L25.6867 30.0947C25.1909 30.613 25.2022 31.4318 25.7054 31.9389C26.2125 32.4422 27.0313 32.4534 27.5496 31.9577L30.3553 29.1482V29.152C30.7196 28.7877 31.2417 28.6299 31.7449 28.7313C32.252 28.8328 32.6726 29.1783 32.868 29.6553C34.1562 32.8102 33.5365 36.4271 31.2717 38.9736C29.0069 41.5238 25.4877 42.5605 22.2013 41.6516L13.6454 50.2074C12.8229 51.0337 11.7075 51.4956 10.5393 51.4956ZM24.233 27.1918C22.3476 27.3119 20.6349 28.3335 19.6321 29.9336C18.6292 31.5336 18.4564 33.5205 19.1739 35.2707C19.4105 35.8416 19.2828 36.4988 18.8471 36.9383L9.61514 46.1703V46.1665C9.12312 46.6848 9.13063 47.5036 9.63767 48.0107C10.1447 48.5177 10.9597 48.5252 11.4781 48.0294L20.71 38.7975V38.8012C21.1457 38.3618 21.803 38.2303 22.3739 38.4595C24.5598 39.3609 27.0725 38.8576 28.7401 37.1825C29.7542 36.1721 30.3589 34.8313 30.449 33.4041L29.7241 34.1327C28.0076 35.8492 25.2283 35.8492 23.5119 34.1327C21.7955 32.4201 21.7955 29.6369 23.5119 27.9205L24.233 27.1918Z" fill="url(#paint5_linear_15190_3814)"/>
<path d="M34.3174 74.1636H27.1061C26.2573 74.1636 25.5662 73.4763 25.5662 72.6274V60.9615C25.5662 60.1127 26.2573 59.4215 27.1061 59.4215H34.3174C34.7268 59.4215 35.1174 59.583 35.4066 59.8723C35.692 60.1615 35.8573 60.5521 35.8573 60.9614V72.6273C35.8573 73.033 35.692 73.4236 35.4066 73.7128C35.1174 74.002 34.7268 74.1636 34.3174 74.1636ZM28.6461 71.0875H32.7813L32.7775 62.4979H28.6423L28.6461 71.0875Z" fill="url(#paint6_linear_15190_3814)"/>
<defs>
<linearGradient id="paint0_linear_15190_3814" x1="26.0341" y1="80" x2="26.0341" y2="-2.71721e-06" gradientUnits="userSpaceOnUse">
<stop stop-color="#0076C9"/>
<stop offset="1" stop-color="#0BCDD0"/>
</linearGradient>
<linearGradient id="paint1_linear_15190_3814" x1="26.0341" y1="80" x2="26.0341" y2="-2.71721e-06" gradientUnits="userSpaceOnUse">
<stop stop-color="#0076C9"/>
<stop offset="1" stop-color="#0BCDD0"/>
</linearGradient>
<linearGradient id="paint2_linear_15190_3814" x1="26.0341" y1="80" x2="26.0341" y2="-2.71721e-06" gradientUnits="userSpaceOnUse">
<stop stop-color="#0076C9"/>
<stop offset="1" stop-color="#0BCDD0"/>
</linearGradient>
<linearGradient id="paint3_linear_15190_3814" x1="26.0341" y1="80" x2="26.0341" y2="-2.71721e-06" gradientUnits="userSpaceOnUse">
<stop stop-color="#0076C9"/>
<stop offset="1" stop-color="#0BCDD0"/>
</linearGradient>
<linearGradient id="paint4_linear_15190_3814" x1="26.0341" y1="80" x2="26.0341" y2="-2.71721e-06" gradientUnits="userSpaceOnUse">
<stop stop-color="#0076C9"/>
<stop offset="1" stop-color="#0BCDD0"/>
</linearGradient>
<linearGradient id="paint5_linear_15190_3814" x1="26.0341" y1="80" x2="26.0341" y2="-2.71721e-06" gradientUnits="userSpaceOnUse">
<stop stop-color="#0076C9"/>
<stop offset="1" stop-color="#0BCDD0"/>
</linearGradient>
<linearGradient id="paint6_linear_15190_3814" x1="26.0341" y1="80" x2="26.0341" y2="-2.71721e-06" gradientUnits="userSpaceOnUse">
<stop stop-color="#0076C9"/>
<stop offset="1" stop-color="#0BCDD0"/>
</linearGradient>
</defs>
</svg>
