<svg width="70" height="69" viewBox="0 0 70 69" fill="none" xmlns="http://www.w3.org/2000/svg"><path d="M58.3573 64.827H40.2665C39.4761 64.827 38.7275 64.7588 37.987 64.6161L37.9452 64.6071C37.2286 64.4671 36.5228 64.2517 35.7938 63.9582L3.43488 50.9715C2.52363 50.6241 1.74306 50.0372 1.15808 49.2976C0.574877 48.5581 0.183705 47.6606 0.0503504 46.6886C-0.0830039 45.7139 0.0521285 44.7419 0.413074 43.8723C0.774909 43.0026 1.36878 42.2263 2.15201 41.6402C2.93169 41.0559 3.84028 40.7086 4.77287 40.6108C5.67701 40.5156 6.60783 40.6548 7.46841 41.038L24.2773 46.1286C24.4 45.9105 24.5378 45.7005 24.6898 45.5021C25.3637 44.6235 26.3247 43.9629 27.4529 43.6703C27.5462 43.6461 27.6396 43.6353 27.7311 43.6353L38.131 43.63C39.0378 43.63 39.8691 43.5196 40.647 43.2916C41.4311 43.0627 42.193 42.7064 42.9531 42.2209C44.1826 41.432 45.542 40.8702 46.9626 40.5569C48.3611 40.2491 49.8253 40.1836 51.2895 40.3828C53.2196 40.6449 55.0323 41.3548 56.5979 42.4228C57.2247 42.85 57.8141 43.3365 58.3573 43.8759V41.3252C58.3573 40.696 58.8632 40.1854 59.4864 40.1854H68.871C69.4942 40.1854 70 40.696 70 41.3252V67.5231C70 68.1522 69.4942 68.6629 68.871 68.6629H59.4864C58.8632 68.6629 58.3573 68.1522 58.3573 67.5231V64.827ZM39.6735 28.9487C39.6735 28.3196 40.1793 27.8089 40.8025 27.8089C41.4258 27.8089 41.9316 28.3196 41.9316 28.9487V28.9586C41.9316 29.5877 41.4258 30.0984 40.8025 30.0984C40.1793 30.0984 39.6735 29.5877 39.6735 28.9586V28.9487ZM35.8231 14.3043C35.7938 14.9307 35.2657 15.4154 34.6451 15.3858C34.0246 15.3561 33.5445 14.823 33.5738 14.1966C33.6707 12.2517 34.5144 10.5151 35.8151 9.26664C37.1166 8.01823 38.876 7.25266 40.8017 7.25266C42.7273 7.25266 44.4867 8.01643 45.7891 9.26664C47.0889 10.5142 47.9325 12.2499 48.0303 14.193L48.0321 14.2504C48.0348 16.9402 46.4212 18.6042 44.7694 20.3085C43.3683 21.7535 41.9316 23.2353 41.9316 25.3569C41.9316 25.9861 41.4258 26.4968 40.8025 26.4968C40.1793 26.4968 39.6735 25.9861 39.6735 25.3569C39.6735 22.3153 41.44 20.4916 43.1638 18.7146C44.4849 17.3513 45.7767 16.0194 45.7767 14.2504C45.6975 12.9356 45.1197 11.7617 44.2369 10.9144C43.3434 10.0573 42.1316 9.5323 40.8017 9.5323C39.4726 9.5323 38.2608 10.0573 37.3673 10.9144C36.4712 11.7751 35.8889 12.9697 35.8231 14.3043ZM40.8025 0C45.9073 0 50.5312 2.09117 53.8784 5.46934C57.2291 8.8529 59.3006 13.5217 59.3006 18.6751C59.3006 23.8285 57.2291 28.4964 53.8828 31.8755C50.5312 35.2581 45.9073 37.3493 40.8025 37.3493C39.0316 37.3493 37.3158 37.0962 35.6897 36.625C34.1419 36.1763 32.6741 35.5265 31.3193 34.7071L23.6514 35.5624C23.0335 35.6306 22.4752 35.18 22.4076 34.5563C22.3943 34.4324 22.4014 34.3113 22.4254 34.1955L24.0355 26.5659C23.5003 25.4072 23.078 24.1848 22.7855 22.9184C22.4708 21.5507 22.3036 20.129 22.3036 18.6751C22.3036 13.5208 24.3751 8.8529 27.7214 5.47383C31.073 2.09116 35.6977 0 40.8025 0ZM52.2879 7.07944C49.3506 4.11502 45.2886 2.27964 40.8025 2.27964C36.3165 2.27964 32.2536 4.11502 29.3163 7.07944C26.3798 10.0448 24.5618 14.1454 24.5618 18.6751C24.5618 19.9621 24.7067 21.2105 24.9814 22.4015C25.265 23.6311 25.6855 24.8077 26.2225 25.9089C26.3354 26.1333 26.3754 26.3953 26.3203 26.6601L24.9556 33.1275L31.4544 32.4023C31.6989 32.3763 31.954 32.4292 32.1781 32.571C33.444 33.3752 34.8327 34.0079 36.3067 34.4351C37.7309 34.848 39.2405 35.0696 40.8025 35.0696C45.2886 35.0696 49.3506 33.2343 52.2879 30.2698C55.2244 27.3045 57.0424 23.2039 57.0424 18.6751C57.0424 14.1463 55.2244 10.0448 52.2879 7.07944ZM58.3573 47.5116C57.5856 46.2255 56.549 45.1359 55.3373 44.3112C54.0491 43.4325 52.5635 42.85 50.989 42.6355C49.7968 42.4731 48.5949 42.5278 47.4391 42.7827C46.2816 43.0376 45.1703 43.498 44.1613 44.1433C43.2243 44.7393 42.273 45.1808 41.2728 45.4725C40.2673 45.7669 39.2307 45.9096 38.131 45.9096H27.8689C27.3026 46.0882 26.8199 46.4373 26.4714 46.8915C26.0962 47.3797 25.8766 47.9972 25.8766 48.6559C25.8766 49.3138 26.0962 49.9295 26.4714 50.4177C26.819 50.8718 27.3035 51.2219 27.8689 51.4005H38.8449C39.4681 51.4005 39.974 51.9111 39.974 52.5403C39.974 53.1694 39.4681 53.6801 38.8449 53.6801H27.7311C27.5907 53.6801 27.4555 53.6541 27.3311 53.6065C26.2545 53.2978 25.3397 52.6543 24.6898 51.807C24.0132 50.9266 23.6185 49.8263 23.6185 48.6559C23.6185 48.5393 23.6221 48.4235 23.6301 48.3086L6.75274 43.1974L6.60249 43.1399C6.09397 42.9039 5.53921 42.8168 5.00224 42.8725C4.46616 42.9281 3.94163 43.1291 3.49267 43.4657C3.04638 43.7996 2.70499 44.2483 2.49518 44.7536C2.28537 45.2589 2.20625 45.8189 2.28181 46.3763C2.35827 46.9354 2.58497 47.4542 2.92191 47.8814C3.25886 48.3077 3.70693 48.6452 4.22701 48.8444L36.6223 61.8473C37.2162 62.086 37.7887 62.2602 38.371 62.3741L38.4102 62.3813C38.9943 62.4935 39.6023 62.5474 40.2665 62.5474H58.3573V47.5116ZM67.7419 42.465H60.6154V66.3833H67.7419V42.465Z" fill="url(#paint0_linear_15190_3809)"/><defs><linearGradient id="paint0_linear_15190_3809" x1="22.7799" y1="68.6629" x2="22.7799" y2="-2.33214e-06" gradientUnits="userSpaceOnUse"><stop stop-color="#0076C9"/><stop offset="1" stop-color="#0BCDD0"/></linearGradient></defs></svg>