<svg width="75" height="63" viewBox="0 0 75 63" fill="none" xmlns="http://www.w3.org/2000/svg"><path fill-rule="evenodd" clip-rule="evenodd" d="M75 3.14997V46.6309C75 47.5 74.6375 48.2867 74.053 48.857C73.4686 49.4272 72.6623 49.7809 71.7716 49.7809L43.7132 49.7779L45.2946 53.7086H51.2669C52.5764 53.7086 53.7672 54.23 54.6297 55.0716C55.4923 55.9132 56.0267 57.0751 56.0267 58.3527V62.2499C56.0267 62.6615 55.6829 62.997 55.261 62.997L20.1108 63C19.6889 63 19.3452 62.6646 19.3452 62.2529V58.3558C19.3452 57.0781 19.8796 55.9163 20.7422 55.0747C21.6047 54.2331 22.7955 53.7116 24.1049 53.7116H30.0429L31.3524 49.7809L3.22843 49.7779C2.33772 49.7779 1.53141 49.4241 0.94696 48.8539C0.362511 48.2837 0 47.4969 0 46.6278V3.15004C0 2.28095 0.362527 1.49422 0.94696 0.923966C1.53139 0.353708 2.33772 0 3.22843 0H71.775C72.6658 0 73.4721 0.353724 74.0565 0.923966C74.6378 1.4942 75 2.28088 75 3.14997ZM42.0692 49.7813H32.9652L31.6557 53.712H43.6536L42.0692 49.7813ZM20.877 61.5089H54.4958V58.3558C54.4958 57.4898 54.1302 56.703 53.5457 56.1297C52.9613 55.5595 52.1519 55.2027 51.2643 55.2027H24.1092C23.2216 55.2027 22.4153 55.5595 21.8277 56.1297C21.2433 56.7 20.8776 57.4898 20.8776 58.3558L20.877 61.5089ZM70.3284 5.30586C70.3284 4.8942 69.9846 4.55877 69.5627 4.55877H5.43885C5.01695 4.55877 4.67316 4.8942 4.67316 5.30586V44.4722C4.67316 44.8838 5.01695 45.2193 5.43885 45.2193H69.5627C69.9846 45.2193 70.3284 44.8838 70.3284 44.4722V5.30586ZM68.797 43.7251V6.05294H6.20446V43.7251H68.797ZM73.4724 46.6312V3.15028C73.4724 2.69593 73.2818 2.28119 72.9755 1.97932C72.6692 1.68048 72.2442 1.49447 71.7754 1.49447L3.22878 1.49142C2.75999 1.49142 2.33806 1.67743 2.02868 1.97627C1.7224 2.27511 1.53176 2.68982 1.53176 3.14723V46.6281C1.53176 47.0825 1.7224 47.4972 2.02868 47.7991C2.33495 48.0979 2.75999 48.284 3.22878 48.284H71.7786C72.2442 48.284 72.6693 48.0979 72.9787 47.7991C73.2818 47.5003 73.4724 47.0856 73.4724 46.6312Z" fill="url(#paint0_linear_15229_3943)"/><path d="M13.9859 25.142V24.2898L20.8467 20.7955V22.1591L15.5839 24.6946L15.6266 24.6094V24.8224L15.5839 24.7372L20.8467 27.2727V28.6364L13.9859 25.142Z" fill="url(#paint1_linear_15229_3943)"/><path d="M23.6819 30V19.0909H27.3679C28.2202 19.0909 28.9198 19.2365 29.4667 19.5277C30.0135 19.8153 30.4184 20.2113 30.6812 20.7156C30.9439 21.2198 31.0753 21.7933 31.0753 22.4361C31.0753 23.0788 30.9439 23.6488 30.6812 24.146C30.4184 24.6431 30.0153 25.0337 29.472 25.3178C28.9287 25.5984 28.2344 25.7386 27.3892 25.7386H24.4063V24.5455H27.3466C27.929 24.5455 28.3978 24.4602 28.7529 24.2898C29.1116 24.1193 29.3708 23.8778 29.5306 23.5653C29.6939 23.2493 29.7756 22.8729 29.7756 22.4361C29.7756 21.9993 29.6939 21.6175 29.5306 21.2908C29.3672 20.9641 29.1062 20.712 28.7476 20.5344C28.3889 20.3533 27.9148 20.2628 27.3253 20.2628H25.0029V30H23.6819ZM28.8168 25.0994L31.5015 30H29.9674L27.3253 25.0994H28.8168Z" fill="url(#paint2_linear_15229_3943)"/><path d="M40.4357 19.0909H41.7567V26.3139C41.7567 27.0597 41.5809 27.7255 41.2294 28.3114C40.8813 28.8938 40.3895 29.3537 39.7539 29.6911C39.1182 30.0249 38.3725 30.1918 37.5166 30.1918C36.6608 30.1918 35.9151 30.0249 35.2794 29.6911C34.6438 29.3537 34.1502 28.8938 33.7986 28.3114C33.4506 27.7255 33.2766 27.0597 33.2766 26.3139V19.0909H34.5976V26.2074C34.5976 26.7401 34.7148 27.2141 34.9492 27.6296C35.1835 28.0415 35.5174 28.3665 35.9506 28.6044C36.3874 28.8388 36.9094 28.956 37.5166 28.956C38.1239 28.956 38.6459 28.8388 39.0827 28.6044C39.5195 28.3665 39.8533 28.0415 40.0841 27.6296C40.3185 27.2141 40.4357 26.7401 40.4357 26.2074V19.0909Z" fill="url(#paint3_linear_15229_3943)"/><path d="M50.3607 21.8182C50.2967 21.2784 50.0375 20.8594 49.583 20.5611C49.1284 20.2628 48.5709 20.1136 47.9104 20.1136C47.4274 20.1136 47.0048 20.1918 46.6426 20.348C46.284 20.5043 46.0034 20.7191 45.801 20.9925C45.6021 21.266 45.5027 21.5767 45.5027 21.9247C45.5027 22.2159 45.572 22.4663 45.7104 22.6758C45.8525 22.8817 46.0336 23.054 46.2538 23.1925C46.4739 23.3274 46.7048 23.4393 46.9462 23.5281C47.1877 23.6133 47.4097 23.6825 47.6121 23.7358L48.72 24.0341C49.0041 24.1087 49.3202 24.2116 49.6682 24.343C50.0198 24.4744 50.3553 24.6538 50.6749 24.881C50.9981 25.1048 51.2644 25.3924 51.4739 25.744C51.6835 26.0955 51.7882 26.527 51.7882 27.0384C51.7882 27.6278 51.6337 28.1605 51.3248 28.6364C51.0194 29.1122 50.572 29.4904 49.9825 29.771C49.3965 30.0515 48.6845 30.1918 47.8465 30.1918C47.0652 30.1918 46.3887 30.0657 45.817 29.8136C45.2488 29.5614 44.8014 29.2099 44.4747 28.7589C44.1515 28.3079 43.9686 27.7841 43.926 27.1875H45.2896C45.3251 27.5994 45.4636 27.9403 45.7051 28.2102C45.9502 28.4766 46.2591 28.6754 46.632 28.8068C47.0084 28.9347 47.4132 28.9986 47.8465 28.9986C48.3507 28.9986 48.8035 28.9169 49.2048 28.7536C49.606 28.5866 49.9239 28.3558 50.1582 28.0611C50.3926 27.7628 50.5098 27.4148 50.5098 27.017C50.5098 26.6548 50.4086 26.3601 50.2062 26.1328C50.0038 25.9055 49.7374 25.7209 49.4072 25.5788C49.0769 25.4368 48.72 25.3125 48.3365 25.206L46.9942 24.8224C46.1419 24.5774 45.4672 24.2276 44.97 23.7731C44.4729 23.3185 44.2243 22.7237 44.2243 21.9886C44.2243 21.3778 44.3894 20.8452 44.7197 20.3906C45.0535 19.9325 45.5009 19.5774 46.062 19.3253C46.6266 19.0696 47.257 18.9418 47.953 18.9418C48.6561 18.9418 49.2811 19.0678 49.828 19.32C50.3749 19.5685 50.8081 19.9094 51.1277 20.3427C51.4509 20.7759 51.6213 21.2678 51.6391 21.8182H50.3607Z" fill="url(#paint4_linear_15229_3943)"/><path d="M61.0127 25.142L54.1519 28.6364V27.2727L59.4147 24.7372L59.3721 24.8224V24.6094L59.4147 24.6946L54.1519 22.1591V20.7955L61.0127 24.2898V25.142Z" fill="url(#paint5_linear_15229_3943)"/><defs><linearGradient id="paint0_linear_15229_3943" x1="24.407" y1="63" x2="24.407" y2="-2.1398e-06" gradientUnits="userSpaceOnUse"><stop stop-color="#0076C9"/><stop offset="1" stop-color="#0BCDD0"/></linearGradient><linearGradient id="paint1_linear_15229_3943" x1="24.407" y1="63" x2="24.407" y2="-2.1398e-06" gradientUnits="userSpaceOnUse"><stop stop-color="#0076C9"/><stop offset="1" stop-color="#0BCDD0"/></linearGradient><linearGradient id="paint2_linear_15229_3943" x1="24.407" y1="63" x2="24.407" y2="-2.1398e-06" gradientUnits="userSpaceOnUse"><stop stop-color="#0076C9"/><stop offset="1" stop-color="#0BCDD0"/></linearGradient><linearGradient id="paint3_linear_15229_3943" x1="24.407" y1="63" x2="24.407" y2="-2.1398e-06" gradientUnits="userSpaceOnUse"><stop stop-color="#0076C9"/><stop offset="1" stop-color="#0BCDD0"/></linearGradient><linearGradient id="paint4_linear_15229_3943" x1="24.407" y1="63" x2="24.407" y2="-2.1398e-06" gradientUnits="userSpaceOnUse"><stop stop-color="#0076C9"/><stop offset="1" stop-color="#0BCDD0"/></linearGradient><linearGradient id="paint5_linear_15229_3943" x1="24.407" y1="63" x2="24.407" y2="-2.1398e-06" gradientUnits="userSpaceOnUse"><stop stop-color="#0076C9"/><stop offset="1" stop-color="#0BCDD0"/></linearGradient></defs></svg>