<svg width="64" height="69" viewBox="0 0 64 69" fill="none" xmlns="http://www.w3.org/2000/svg"><path d="M63.1543 40.2816C62.7721 39.7267 62.6229 39.1496 62.6789 38.4671C62.8529 36.4581 61.7714 34.5352 59.9876 33.6838C59.3848 33.3968 58.9746 32.9727 58.6917 32.3572C57.862 30.5268 55.9881 29.4138 54.0333 29.5925C53.3683 29.6499 52.8058 29.4968 52.265 29.1046C51.0003 28.1989 49.3966 28.014 47.9889 28.5306V6.97721C47.9889 6.62643 47.8024 6.30754 47.5041 6.13857C40.3316 2.12374 32.2023 0 23.9944 0C15.7843 0 7.6544 2.12382 0.484799 6.13857C0.186464 6.30438 0 6.62647 0 6.97721V33.8336C0 48.8373 18.1826 55.0082 23.7547 56.5413C23.8324 56.5636 23.9132 56.5732 23.9971 56.5732C24.0779 56.5732 24.1587 56.5636 24.2395 56.5413C27.0768 55.76 32.4218 54.0061 37.3384 50.83C37.7766 51.4582 38.3546 51.9812 39.0507 52.3384L35.6291 65.4253C35.5328 65.792 35.6571 66.1811 35.9461 66.417C36.2351 66.653 36.6329 66.6944 36.9592 66.5159L41.5896 64.0253L44.3865 68.5567C44.5574 68.8374 44.8557 69 45.1727 69C45.2193 69 45.2659 68.9968 45.3126 68.9904C45.6793 68.933 45.9745 68.6588 46.0708 68.2953L48.818 57.7782C49.0697 57.8196 49.3214 57.8452 49.5731 57.8452C49.6975 57.8452 49.8186 57.826 49.943 57.8165L52.6808 68.2952C52.7771 68.6619 53.0724 68.9329 53.4391 68.9903C53.4857 68.9967 53.5323 68.9999 53.5789 68.9999C53.8959 68.9999 54.1911 68.8341 54.3651 68.5566L57.162 64.0252L61.7893 66.5158C62.1156 66.6911 62.5134 66.6529 62.8024 66.4169C63.0914 66.1809 63.2157 65.7919 63.1194 65.4252L59.7569 52.5358C59.8346 52.4912 59.906 52.4401 59.9868 52.4019C61.7706 51.5472 62.8521 49.6276 62.6812 47.6217C62.6252 46.9393 62.7744 46.3621 63.1566 45.804C64.2816 44.1522 64.2816 41.9359 63.1535 40.2809L63.1543 40.2816ZM23.9912 54.6315C18.4782 53.0817 1.8555 47.2779 1.8555 33.8365L1.85861 7.54749C15.7595 -0.0260583 32.2268 -0.0260583 46.1276 7.54749V29.487C45.8107 29.5858 45.4781 29.6273 45.1146 29.5954C44.5241 29.5412 43.943 29.6177 43.3929 29.7835V9.87514C43.3929 9.50524 43.1847 9.16721 42.8553 9.01095C37.0128 6.20474 30.4899 4.71873 23.9917 4.71873C17.4936 4.71873 10.9708 6.20156 5.12815 9.01095C4.80184 9.16721 4.59052 9.50523 4.59052 9.87514V33.8367C4.59052 38.2661 6.86535 42.2362 11.3528 45.6388C15.6445 48.8914 20.9465 50.792 23.7278 51.6371C23.8148 51.6626 23.9018 51.6753 23.9919 51.6753C24.082 51.6753 24.1691 51.6626 24.2561 51.6371C26.9566 50.8175 31.9351 49.0349 36.1147 46.0215C36.3975 46.5157 36.5156 47.0292 36.4659 47.6222C36.4224 48.1165 36.4566 48.6044 36.5591 49.0732C31.9256 52.1154 26.8262 53.8373 23.9948 54.6346L23.9912 54.6315ZM36.4624 38.4701C36.5215 39.1462 36.3723 39.7201 35.9901 40.2782C35.1852 41.4549 34.9645 42.9186 35.3064 44.2579C31.4249 47.1374 26.692 48.885 23.9911 49.7204C21.6479 48.9934 17.7074 47.5584 14.1492 45.2752L21.1787 38.062C22.1141 37.1021 23.264 36.6397 24.591 36.6875C27.6521 36.7992 30.6478 35.5873 32.8107 33.3711C35.5517 30.5553 36.6643 26.4098 35.7132 22.5479C35.6324 22.2163 35.3807 21.9516 35.0575 21.8623C34.7343 21.7698 34.3894 21.8655 34.1532 22.1078L28.5501 27.851L23.8078 26.5468L22.5367 21.6806L28.1337 15.931C28.3699 15.6886 28.46 15.3347 28.373 15.003C28.2828 14.6714 28.028 14.4163 27.7048 14.3302C23.9414 13.3576 19.9015 14.496 17.1573 17.3117C14.9975 19.5312 13.8196 22.6053 13.9253 25.7463C13.9719 27.108 13.5213 28.2847 12.5859 29.2477L6.57254 35.4182C6.49175 34.8984 6.44824 34.369 6.44824 33.8365V10.4872C17.6299 5.30523 30.3461 5.30523 41.5277 10.4872V30.8674C41.0865 31.2852 40.7105 31.7795 40.4463 32.3598C40.1635 32.9785 39.7532 33.4026 39.1535 33.6896C37.3697 34.541 36.2882 36.4639 36.4622 38.4761L36.4624 38.4701ZM20.6037 21.6426L22.1513 27.5739C22.2383 27.9024 22.487 28.1607 22.8101 28.25L28.5873 29.838C28.9074 29.9273 29.2523 29.8317 29.4854 29.5925L34.1717 24.7869C34.3178 27.4496 33.3575 30.1059 31.4929 32.0193C29.6656 33.8912 27.2354 34.8733 24.6529 34.7808C22.8163 34.7139 21.1568 35.3835 19.8609 36.7133L12.5766 44.188C12.5362 44.1593 12.4958 44.1306 12.4585 44.1019C9.81389 42.0961 8.03939 39.899 7.14128 37.5423L13.9067 30.6001C15.2057 29.2672 15.8551 27.5675 15.7899 25.6829C15.6998 23.033 16.6569 20.5392 18.478 18.6642C20.3458 16.7508 22.9345 15.7686 25.5293 15.9153L20.8461 20.7241C20.6099 20.9665 20.5198 21.3173 20.6068 21.6457L20.6037 21.6426ZM44.819 65.7004L42.6996 62.2628C42.4416 61.8419 41.9102 61.6984 41.4814 61.928L37.9728 63.8158L40.5584 53.9273C41.4317 55.6366 43.2279 56.6666 45.1143 56.4943C45.7731 56.4337 46.3356 56.5868 46.8795 56.979C46.9385 57.0237 47.0069 57.0524 47.069 57.0938L44.8222 65.7039L44.819 65.7004ZM57.2624 61.9311C56.8336 61.7015 56.3022 61.845 56.0442 62.266L53.9248 65.7004L51.7308 57.3009C51.9141 57.2052 52.0913 57.1032 52.2622 56.9788C52.806 56.5866 53.3654 56.4335 54.0274 56.4941C55.7304 56.6472 57.3681 55.8276 58.3128 54.4054L60.7679 63.8155L57.2625 61.9277L57.2624 61.9311ZM61.6287 44.7077C61.0009 45.6261 60.7275 46.6593 60.8238 47.7881C60.9295 48.9999 60.2769 50.1574 59.1985 50.6741C58.8162 50.8591 58.4837 51.095 58.176 51.3629C58.1294 51.3948 58.0921 51.4299 58.0517 51.4681C57.6198 51.8731 57.2624 52.3546 57.0044 52.9255C56.5041 54.0289 55.3729 54.7017 54.1952 54.5933C53.1044 54.4945 52.0944 54.7687 51.1963 55.416C50.2236 56.1144 48.9184 56.1144 47.9457 55.416C47.1657 54.858 46.3018 54.5742 45.3787 54.5742C45.2358 54.5742 45.0928 54.5806 44.9468 54.5933C43.7658 54.7018 42.6378 54.0321 42.1375 52.9287C41.8081 52.2017 41.3326 51.6149 40.7297 51.162C40.7111 51.1461 40.6956 51.1302 40.6738 51.1142C40.4469 50.9484 40.2046 50.8017 39.9404 50.6773C38.8651 50.1639 38.2094 49.0032 38.3151 47.7946C38.4114 46.6753 38.1441 45.6422 37.5133 44.7142C36.8327 43.7192 36.8327 42.3799 37.5133 41.3818C38.1442 40.4603 38.4145 39.4239 38.3151 38.3078C38.2094 37.096 38.862 35.9385 39.9373 35.4251C40.9286 34.9531 41.6683 34.1942 42.1313 33.1737C42.6316 32.0704 43.7628 31.4007 44.9438 31.5059C46.0408 31.6016 47.0476 31.3242 47.9426 30.68C48.9123 29.9849 50.2206 29.9849 51.187 30.6768C52.0789 31.3242 53.0858 31.6016 54.1859 31.5059C55.3668 31.3975 56.4948 32.0672 56.9984 33.1737C57.4614 34.191 58.201 34.95 59.1924 35.4251C60.2676 35.9385 60.9202 37.0993 60.8177 38.3111C60.7245 39.4367 60.9948 40.4699 61.6226 41.3883C62.3031 42.3833 62.3031 43.7226 61.6226 44.7175L61.6287 44.7077ZM49.5712 33.9833C44.7014 33.9833 40.742 38.0459 40.742 43.0399C40.742 48.0337 44.7043 52.0998 49.5712 52.0998C54.4409 52.0998 58.3971 48.0339 58.3971 43.0399C58.3971 38.0429 54.4379 33.9833 49.5712 33.9833ZM49.5712 50.192C45.7301 50.192 42.6007 46.984 42.6007 43.0393C42.6007 39.0947 45.727 35.8931 49.5712 35.8931C53.4122 35.8931 56.5354 39.0979 56.5354 43.0393C56.5354 46.9808 53.4122 50.192 49.5712 50.192ZM53.751 39.7835C54.1146 40.1566 54.1146 40.7593 53.751 41.1323L48.7135 46.3015C48.5363 46.4833 48.3001 46.5821 48.0546 46.5821C48.0142 46.5821 47.9738 46.5789 47.9334 46.5725C47.6475 46.5343 47.3927 46.3589 47.2498 46.1038L45.2422 42.5354C44.9843 42.0794 45.1366 41.4959 45.5841 41.2311C46.0285 40.9664 46.5971 41.1227 46.8551 41.5819L48.2567 44.0724L52.4365 39.7834C52.8001 39.4103 53.3874 39.4104 53.751 39.7835Z" fill="url(#paint0_linear_15190_3767)"/><defs><linearGradient id="paint0_linear_15190_3767" x1="20.8273" y1="69" x2="20.8273" y2="-2.34359e-06" gradientUnits="userSpaceOnUse"><stop stop-color="#0076C9"/><stop offset="1" stop-color="#0BCDD0"/></linearGradient></defs></svg>